<?xml version="1.0" encoding="UTF-8" standalone="no"?>
<!DOCTYPE svg PUBLIC "-//W3C//DTD SVG 1.1//EN"
 "http://www.w3.org/Graphics/SVG/1.1/DTD/svg11.dtd">
<!-- Generated by graphviz version 6.0.1 (20220911.1526)
 -->
<!-- Title: Graphical Class Hierarchy Pages: 1 -->
<svg width="295pt" height="27pt"
 viewBox="0.00 0.00 295.00 27.00" xmlns="http://www.w3.org/2000/svg" xmlns:xlink="http://www.w3.org/1999/xlink">
<g id="graph0" class="graph" transform="scale(1 1) rotate(0) translate(4 23)">
<title>Graphical Class Hierarchy</title>
<!-- Node0 -->
<g id="node1" class="node">
<title>Node0</title>
<g id="a_node1"><a xlink:href="d8/d87/class_controller.html" target="_top" xlink:title=" ">
<polygon fill="white" stroke="#666666" points="58,-19 0,-19 0,0 58,0 58,-19"/>
<text text-anchor="middle" x="29" y="-7" font-family="Helvetica,sans-Serif" font-size="10.00">Controller</text>
</a>
</g>
</g>
<!-- Node1 -->
<g id="node2" class="node">
<title>Node1</title>
<g id="a_node2"><a xlink:href="dc/dea/classdoxygen__documentation__example_1_1_controllers_1_1_main_controller.html" target="_top" xlink:title=" ">
<polygon fill="white" stroke="#666666" points="173,-19 94,-19 94,0 173,0 173,-19"/>
<text text-anchor="middle" x="133.5" y="-7" font-family="Helvetica,sans-Serif" font-size="10.00">MainController</text>
</a>
</g>
</g>
<!-- Node0&#45;&gt;Node1 -->
<g id="edge1" class="edge">
<title>Node0&#45;&gt;Node1</title>
<path fill="none" stroke="#63b8ff" d="M68.24,-9.5C76.58,-9.5 85.41,-9.5 93.77,-9.5"/>
<polygon fill="#63b8ff" stroke="#63b8ff" points="68.01,-6 58.01,-9.5 68.01,-13 68.01,-6"/>
</g>
<!-- Node2 -->
<g id="node3" class="node">
<title>Node2</title>
<g id="a_node3"><a xlink:href="d2/dce/classdoxygen__documentation__example_1_1_controllers_1_1_user_controller.html" target="_top" xlink:title=" ">
<polygon fill="white" stroke="#666666" points="287,-19 209,-19 209,0 287,0 287,-19"/>
<text text-anchor="middle" x="248" y="-7" font-family="Helvetica,sans-Serif" font-size="10.00">UserController</text>
</a>
</g>
</g>
<!-- Node1&#45;&gt;Node2 -->
<g id="edge2" class="edge">
<title>Node1&#45;&gt;Node2</title>
<path fill="none" stroke="#63b8ff" d="M183.47,-9.5C192.01,-9.5 200.78,-9.5 208.97,-9.5"/>
<polygon fill="#63b8ff" stroke="#63b8ff" points="183.22,-6 173.22,-9.5 183.22,-13 183.22,-6"/>
</g>
</g>
</svg>
