<?xml version="1.0" encoding="UTF-8" standalone="no"?>
<!DOCTYPE svg PUBLIC "-//W3C//DTD SVG 1.1//EN"
 "http://www.w3.org/Graphics/SVG/1.1/DTD/svg11.dtd">
<!-- Generated by graphviz version 6.0.1 (20220911.1526)
 -->
<!-- Title: Dispose Pages: 1 -->
<svg width="150pt" height="64pt"
 viewBox="0.00 0.00 150.00 64.00" xmlns="http://www.w3.org/2000/svg" xmlns:xlink="http://www.w3.org/1999/xlink">
<g id="graph0" class="graph" transform="scale(1 1) rotate(0) translate(4 60)">
<title>Dispose</title>
<!-- Node1 -->
<g id="node1" class="node">
<title>Node1</title>
<g id="a_node1"><a xlink:title=" ">
<polygon fill="#999999" stroke="#666666" points="142,-37 90,-37 90,-18 142,-18 142,-37"/>
<text text-anchor="middle" x="116" y="-25" font-family="Helvetica,sans-Serif" font-size="10.00">Dispose</text>
</a>
</g>
</g>
<!-- Node2 -->
<g id="node2" class="node">
<title>Node2</title>
<g id="a_node2"><a xlink:href="../../d2/dec/classdoxygen__documentation__example_1_1_data_1_1_repositories_1_1_unit_of_work.html#aca6f43ce4724910499fa7cadb5caa01f" target="_top" xlink:title=" ">
<polygon fill="white" stroke="#666666" points="52,-56 2,-56 2,-37 52,-37 52,-56"/>
<text text-anchor="middle" x="27" y="-44" font-family="Helvetica,sans-Serif" font-size="10.00">Commit</text>
</a>
</g>
</g>
<!-- Node1&#45;&gt;Node2 -->
<g id="edge1" class="edge">
<title>Node1&#45;&gt;Node2</title>
<path fill="none" stroke="#63b8ff" d="M80.01,-35.14C70.69,-37.18 60.82,-39.33 52.21,-41.21"/>
<polygon fill="#63b8ff" stroke="#63b8ff" points="80.81,-38.55 89.84,-33 79.32,-31.71 80.81,-38.55"/>
</g>
<!-- Node3 -->
<g id="node3" class="node">
<title>Node3</title>
<g id="a_node3"><a xlink:href="../../d2/dec/classdoxygen__documentation__example_1_1_data_1_1_repositories_1_1_unit_of_work.html#a0d16f679aefca9eb4bed9a6bf62d0517" target="_top" xlink:title=" ">
<polygon fill="white" stroke="#666666" points="54,-19 0,-19 0,0 54,0 54,-19"/>
<text text-anchor="middle" x="27" y="-7" font-family="Helvetica,sans-Serif" font-size="10.00">Rollback</text>
</a>
</g>
</g>
<!-- Node1&#45;&gt;Node3 -->
<g id="edge2" class="edge">
<title>Node1&#45;&gt;Node3</title>
<path fill="none" stroke="#63b8ff" d="M79.96,-20.25C71.3,-18.46 62.16,-16.57 54.01,-14.88"/>
<polygon fill="#63b8ff" stroke="#63b8ff" points="79.33,-23.69 89.84,-22.29 80.75,-16.84 79.33,-23.69"/>
</g>
</g>
</svg>
