<?xml version="1.0" encoding="UTF-8" standalone="no"?>
<!DOCTYPE svg PUBLIC "-//W3C//DTD SVG 1.1//EN"
 "http://www.w3.org/Graphics/SVG/1.1/DTD/svg11.dtd">
<!-- Generated by graphviz version 6.0.1 (20220911.1526)
 -->
<!-- Title: Commit Pages: 1 -->
<svg width="417pt" height="167pt"
 viewBox="0.00 0.00 417.00 167.00" xmlns="http://www.w3.org/2000/svg" xmlns:xlink="http://www.w3.org/1999/xlink">
<g id="graph0" class="graph" transform="scale(1 1) rotate(0) translate(4 163)">
<title>Commit</title>
<!-- Node1 -->
<g id="node1" class="node">
<title>Node1</title>
<g id="a_node1"><a xlink:title=" ">
<polygon fill="#999999" stroke="#666666" points="409,-89 359,-89 359,-70 409,-70 409,-89"/>
<text text-anchor="middle" x="384" y="-77" font-family="Helvetica,sans-Serif" font-size="10.00">Commit</text>
</a>
</g>
</g>
<!-- Node2 -->
<g id="node2" class="node">
<title>Node2</title>
<g id="a_node2"><a xlink:href="../../dd/d8d/classdoxygen__documentation__example_1_1_data_1_1_repositories_1_1_user_repository.html#ac74c030710594161600f490b943dd2d3" target="_top" xlink:title=" ">
<polygon fill="white" stroke="#666666" points="321.5,-159 179.5,-159 179.5,-118 321.5,-118 321.5,-159"/>
<text text-anchor="start" x="187.5" y="-147" font-family="Helvetica,sans-Serif" font-size="10.00">doxygen_documentation</text>
<text text-anchor="start" x="187.5" y="-136" font-family="Helvetica,sans-Serif" font-size="10.00">_example.Data.Repositories.</text>
<text text-anchor="middle" x="250.5" y="-125" font-family="Helvetica,sans-Serif" font-size="10.00">UserRepository.AddAsync</text>
</a>
</g>
</g>
<!-- Node1&#45;&gt;Node2 -->
<g id="edge1" class="edge">
<title>Node1&#45;&gt;Node2</title>
<path fill="none" stroke="#63b8ff" d="M355.6,-93.76C345.44,-98.9 333.78,-104.63 323,-109.5 316.77,-112.31 310.19,-115.16 303.64,-117.91"/>
<polygon fill="#63b8ff" stroke="#63b8ff" points="357.48,-96.73 364.8,-89.07 354.3,-90.5 357.48,-96.73"/>
</g>
<!-- Node4 -->
<g id="node4" class="node">
<title>Node4</title>
<g id="a_node4"><a xlink:href="../../dd/d8d/classdoxygen__documentation__example_1_1_data_1_1_repositories_1_1_user_repository.html#aba2586b4949e10739f2b166634dd91c3" target="_top" xlink:title=" ">
<polygon fill="white" stroke="#666666" points="321.5,-100 179.5,-100 179.5,-59 321.5,-59 321.5,-100"/>
<text text-anchor="start" x="187.5" y="-88" font-family="Helvetica,sans-Serif" font-size="10.00">doxygen_documentation</text>
<text text-anchor="start" x="187.5" y="-77" font-family="Helvetica,sans-Serif" font-size="10.00">_example.Data.Repositories.</text>
<text text-anchor="middle" x="250.5" y="-66" font-family="Helvetica,sans-Serif" font-size="10.00">UserRepository.DeleteAsync</text>
</a>
</g>
</g>
<!-- Node1&#45;&gt;Node4 -->
<g id="edge3" class="edge">
<title>Node1&#45;&gt;Node4</title>
<path fill="none" stroke="#63b8ff" d="M348.77,-79.5C340.37,-79.5 331.06,-79.5 321.63,-79.5"/>
<polygon fill="#63b8ff" stroke="#63b8ff" points="348.88,-83 358.88,-79.5 348.88,-76 348.88,-83"/>
</g>
<!-- Node5 -->
<g id="node5" class="node">
<title>Node5</title>
<g id="a_node5"><a xlink:href="../../dd/d8d/classdoxygen__documentation__example_1_1_data_1_1_repositories_1_1_user_repository.html#a0c190ef463a19468f2168882f2d80ff4" target="_top" xlink:title=" ">
<polygon fill="white" stroke="#666666" points="323,-41 178,-41 178,0 323,0 323,-41"/>
<text text-anchor="start" x="186" y="-29" font-family="Helvetica,sans-Serif" font-size="10.00">doxygen_documentation</text>
<text text-anchor="start" x="186" y="-18" font-family="Helvetica,sans-Serif" font-size="10.00">_example.Data.Repositories.</text>
<text text-anchor="middle" x="250.5" y="-7" font-family="Helvetica,sans-Serif" font-size="10.00">UserRepository.UpdateAsync</text>
</a>
</g>
</g>
<!-- Node1&#45;&gt;Node5 -->
<g id="edge4" class="edge">
<title>Node1&#45;&gt;Node5</title>
<path fill="none" stroke="#63b8ff" d="M354.84,-65.51C344.84,-60.64 333.47,-55.22 323,-50.5 316.13,-47.4 308.84,-44.22 301.65,-41.15"/>
<polygon fill="#63b8ff" stroke="#63b8ff" points="353.42,-68.71 363.94,-69.97 356.5,-62.42 353.42,-68.71"/>
</g>
<!-- Node3 -->
<g id="node3" class="node">
<title>Node3</title>
<g id="a_node3"><a xlink:href="../../dd/d8d/classdoxygen__documentation__example_1_1_data_1_1_repositories_1_1_user_repository.html#aa3530cdea5f2a85cd4a9f7522f21bae0" target="_top" xlink:title=" ">
<polygon fill="white" stroke="#666666" points="142,-159 0,-159 0,-118 142,-118 142,-159"/>
<text text-anchor="start" x="8" y="-147" font-family="Helvetica,sans-Serif" font-size="10.00">doxygen_documentation</text>
<text text-anchor="start" x="8" y="-136" font-family="Helvetica,sans-Serif" font-size="10.00">_example.Data.Repositories.</text>
<text text-anchor="middle" x="71" y="-125" font-family="Helvetica,sans-Serif" font-size="10.00">UserRepository.PopulateDb</text>
</a>
</g>
</g>
<!-- Node2&#45;&gt;Node3 -->
<g id="edge2" class="edge">
<title>Node2&#45;&gt;Node3</title>
<path fill="none" stroke="#63b8ff" d="M169.24,-138.5C160.23,-138.5 151.1,-138.5 142.22,-138.5"/>
<polygon fill="#63b8ff" stroke="#63b8ff" points="169.35,-142 179.35,-138.5 169.35,-135 169.35,-142"/>
</g>
</g>
</svg>
