<?xml version="1.0" encoding="UTF-8" standalone="no"?>
<!DOCTYPE svg PUBLIC "-//W3C//DTD SVG 1.1//EN"
 "http://www.w3.org/Graphics/SVG/1.1/DTD/svg11.dtd">
<!-- Generated by graphviz version 6.0.1 (20220911.1526)
 -->
<!-- Title: BeginTransaction Pages: 1 -->
<svg width="459pt" height="167pt"
 viewBox="0.00 0.00 459.00 167.00" xmlns="http://www.w3.org/2000/svg" xmlns:xlink="http://www.w3.org/1999/xlink">
<g id="graph0" class="graph" transform="scale(1 1) rotate(0) translate(4 163)">
<title>BeginTransaction</title>
<!-- Node1 -->
<g id="node1" class="node">
<title>Node1</title>
<g id="a_node1"><a xlink:title=" ">
<polygon fill="#999999" stroke="#666666" points="451,-89 359,-89 359,-70 451,-70 451,-89"/>
<text text-anchor="middle" x="405" y="-77" font-family="Helvetica,sans-Serif" font-size="10.00">BeginTransaction</text>
</a>
</g>
</g>
<!-- Node2 -->
<g id="node2" class="node">
<title>Node2</title>
<g id="a_node2"><a xlink:href="../../dd/d8d/classdoxygen__documentation__example_1_1_data_1_1_repositories_1_1_user_repository.html#ac74c030710594161600f490b943dd2d3" target="_top" xlink:title=" ">
<polygon fill="white" stroke="#666666" points="321.5,-159 179.5,-159 179.5,-118 321.5,-118 321.5,-159"/>
<text text-anchor="start" x="187.5" y="-147" font-family="Helvetica,sans-Serif" font-size="10.00">doxygen_documentation</text>
<text text-anchor="start" x="187.5" y="-136" font-family="Helvetica,sans-Serif" font-size="10.00">_example.Data.Repositories.</text>
<text text-anchor="middle" x="250.5" y="-125" font-family="Helvetica,sans-Serif" font-size="10.00">UserRepository.AddAsync</text>
</a>
</g>
</g>
<!-- Node1&#45;&gt;Node2 -->
<g id="edge1" class="edge">
<title>Node1&#45;&gt;Node2</title>
<path fill="none" stroke="#63b8ff" d="M369.67,-92.78C350.55,-100.18 326.32,-109.55 304.79,-117.88"/>
<polygon fill="#63b8ff" stroke="#63b8ff" points="371.1,-95.98 379.16,-89.11 368.57,-89.45 371.1,-95.98"/>
</g>
<!-- Node4 -->
<g id="node4" class="node">
<title>Node4</title>
<g id="a_node4"><a xlink:href="../../dd/d8d/classdoxygen__documentation__example_1_1_data_1_1_repositories_1_1_user_repository.html#aba2586b4949e10739f2b166634dd91c3" target="_top" xlink:title=" ">
<polygon fill="white" stroke="#666666" points="321.5,-100 179.5,-100 179.5,-59 321.5,-59 321.5,-100"/>
<text text-anchor="start" x="187.5" y="-88" font-family="Helvetica,sans-Serif" font-size="10.00">doxygen_documentation</text>
<text text-anchor="start" x="187.5" y="-77" font-family="Helvetica,sans-Serif" font-size="10.00">_example.Data.Repositories.</text>
<text text-anchor="middle" x="250.5" y="-66" font-family="Helvetica,sans-Serif" font-size="10.00">UserRepository.DeleteAsync</text>
</a>
</g>
</g>
<!-- Node1&#45;&gt;Node4 -->
<g id="edge3" class="edge">
<title>Node1&#45;&gt;Node4</title>
<path fill="none" stroke="#63b8ff" d="M348.56,-79.5C339.78,-79.5 330.59,-79.5 321.53,-79.5"/>
<polygon fill="#63b8ff" stroke="#63b8ff" points="348.66,-83 358.66,-79.5 348.66,-76 348.66,-83"/>
</g>
<!-- Node5 -->
<g id="node5" class="node">
<title>Node5</title>
<g id="a_node5"><a xlink:href="../../dd/d8d/classdoxygen__documentation__example_1_1_data_1_1_repositories_1_1_user_repository.html#a0c190ef463a19468f2168882f2d80ff4" target="_top" xlink:title=" ">
<polygon fill="white" stroke="#666666" points="323,-41 178,-41 178,0 323,0 323,-41"/>
<text text-anchor="start" x="186" y="-29" font-family="Helvetica,sans-Serif" font-size="10.00">doxygen_documentation</text>
<text text-anchor="start" x="186" y="-18" font-family="Helvetica,sans-Serif" font-size="10.00">_example.Data.Repositories.</text>
<text text-anchor="middle" x="250.5" y="-7" font-family="Helvetica,sans-Serif" font-size="10.00">UserRepository.UpdateAsync</text>
</a>
</g>
</g>
<!-- Node1&#45;&gt;Node5 -->
<g id="edge4" class="edge">
<title>Node1&#45;&gt;Node5</title>
<path fill="none" stroke="#63b8ff" d="M369.67,-66.22C350.55,-58.82 326.32,-49.45 304.79,-41.12"/>
<polygon fill="#63b8ff" stroke="#63b8ff" points="368.57,-69.55 379.16,-69.89 371.1,-63.02 368.57,-69.55"/>
</g>
<!-- Node3 -->
<g id="node3" class="node">
<title>Node3</title>
<g id="a_node3"><a xlink:href="../../dd/d8d/classdoxygen__documentation__example_1_1_data_1_1_repositories_1_1_user_repository.html#aa3530cdea5f2a85cd4a9f7522f21bae0" target="_top" xlink:title=" ">
<polygon fill="white" stroke="#666666" points="142,-159 0,-159 0,-118 142,-118 142,-159"/>
<text text-anchor="start" x="8" y="-147" font-family="Helvetica,sans-Serif" font-size="10.00">doxygen_documentation</text>
<text text-anchor="start" x="8" y="-136" font-family="Helvetica,sans-Serif" font-size="10.00">_example.Data.Repositories.</text>
<text text-anchor="middle" x="71" y="-125" font-family="Helvetica,sans-Serif" font-size="10.00">UserRepository.PopulateDb</text>
</a>
</g>
</g>
<!-- Node2&#45;&gt;Node3 -->
<g id="edge2" class="edge">
<title>Node2&#45;&gt;Node3</title>
<path fill="none" stroke="#63b8ff" d="M169.24,-138.5C160.23,-138.5 151.1,-138.5 142.22,-138.5"/>
<polygon fill="#63b8ff" stroke="#63b8ff" points="169.35,-142 179.35,-138.5 169.35,-135 169.35,-142"/>
</g>
</g>
</svg>
