<?xml version="1.0" encoding="UTF-8" standalone="no"?>
<!DOCTYPE svg PUBLIC "-//W3C//DTD SVG 1.1//EN"
 "http://www.w3.org/Graphics/SVG/1.1/DTD/svg11.dtd">
<!-- Generated by graphviz version 6.0.1 (20220911.1526)
 -->
<!-- Title: CustomResponse Pages: 1 -->
<svg width="314pt" height="108pt"
 viewBox="0.00 0.00 314.00 108.00" xmlns="http://www.w3.org/2000/svg" xmlns:xlink="http://www.w3.org/1999/xlink">
<g id="graph0" class="graph" transform="scale(1 1) rotate(0) translate(4 104)">
<title>CustomResponse</title>
<!-- Node1 -->
<g id="node1" class="node">
<title>Node1</title>
<g id="a_node1"><a xlink:title=" ">
<polygon fill="#999999" stroke="#666666" points="306,-59 212,-59 212,-40 306,-40 306,-59"/>
<text text-anchor="middle" x="259" y="-47" font-family="Helvetica,sans-Serif" font-size="10.00">CustomResponse</text>
</a>
</g>
</g>
<!-- Node2 -->
<g id="node2" class="node">
<title>Node2</title>
<g id="a_node2"><a xlink:href="../../d2/dce/classdoxygen__documentation__example_1_1_controllers_1_1_user_controller.html#a2373be97fadf75267ad52dbf3b1fe5e2" target="_top" xlink:title=" ">
<polygon fill="white" stroke="#666666" points="176,-100 0,-100 0,-59 176,-59 176,-100"/>
<text text-anchor="start" x="8" y="-88" font-family="Helvetica,sans-Serif" font-size="10.00">doxygen_documentation</text>
<text text-anchor="start" x="8" y="-77" font-family="Helvetica,sans-Serif" font-size="10.00">_example.Controllers.UserController.</text>
<text text-anchor="middle" x="88" y="-66" font-family="Helvetica,sans-Serif" font-size="10.00">GetAll</text>
</a>
</g>
</g>
<!-- Node1&#45;&gt;Node2 -->
<g id="edge1" class="edge">
<title>Node1&#45;&gt;Node2</title>
<path fill="none" stroke="#63b8ff" d="M201.9,-59.46C193.58,-60.94 184.84,-62.49 176.07,-64.04"/>
<polygon fill="#63b8ff" stroke="#63b8ff" points="202.59,-62.89 211.82,-57.7 201.36,-56 202.59,-62.89"/>
</g>
<!-- Node3 -->
<g id="node3" class="node">
<title>Node3</title>
<g id="a_node3"><a xlink:href="../../d2/dce/classdoxygen__documentation__example_1_1_controllers_1_1_user_controller.html#ac70317398e9d84a3112934e6a6cbc3c7" target="_top" xlink:title=" ">
<polygon fill="white" stroke="#666666" points="176,-41 0,-41 0,0 176,0 176,-41"/>
<text text-anchor="start" x="8" y="-29" font-family="Helvetica,sans-Serif" font-size="10.00">doxygen_documentation</text>
<text text-anchor="start" x="8" y="-18" font-family="Helvetica,sans-Serif" font-size="10.00">_example.Controllers.UserController.</text>
<text text-anchor="middle" x="88" y="-7" font-family="Helvetica,sans-Serif" font-size="10.00">GetById</text>
</a>
</g>
</g>
<!-- Node1&#45;&gt;Node3 -->
<g id="edge2" class="edge">
<title>Node1&#45;&gt;Node3</title>
<path fill="none" stroke="#63b8ff" d="M201.9,-39.87C193.58,-38.45 184.84,-36.95 176.07,-35.44"/>
<polygon fill="#63b8ff" stroke="#63b8ff" points="201.37,-43.33 211.82,-41.58 202.56,-36.43 201.37,-43.33"/>
</g>
</g>
</svg>
