<?xml version="1.0" encoding="UTF-8" standalone="no"?>
<!DOCTYPE svg PUBLIC "-//W3C//DTD SVG 1.1//EN"
 "http://www.w3.org/Graphics/SVG/1.1/DTD/svg11.dtd">
<!-- Generated by graphviz version 6.0.1 (20220911.1526)
 -->
<!-- Title: ValidOperation Pages: 1 -->
<svg width="430pt" height="49pt"
 viewBox="0.00 0.00 430.00 49.00" xmlns="http://www.w3.org/2000/svg" xmlns:xlink="http://www.w3.org/1999/xlink">
<g id="graph0" class="graph" transform="scale(1 1) rotate(0) translate(4 45)">
<title>ValidOperation</title>
<!-- Node1 -->
<g id="node1" class="node">
<title>Node1</title>
<g id="a_node1"><a xlink:title=" ">
<polygon fill="#999999" stroke="#666666" points="422,-30 342,-30 342,-11 422,-11 422,-30"/>
<text text-anchor="middle" x="382" y="-18" font-family="Helvetica,sans-Serif" font-size="10.00">ValidOperation</text>
</a>
</g>
</g>
<!-- Node2 -->
<g id="node2" class="node">
<title>Node2</title>
<g id="a_node2"><a xlink:href="../../dc/dea/classdoxygen__documentation__example_1_1_controllers_1_1_main_controller.html#ace3ef7f06f05386c2158b04030bc9cb1" target="_top" xlink:title=" ">
<polygon fill="white" stroke="#666666" points="306,-30 212,-30 212,-11 306,-11 306,-30"/>
<text text-anchor="middle" x="259" y="-18" font-family="Helvetica,sans-Serif" font-size="10.00">CustomResponse</text>
</a>
</g>
</g>
<!-- Node1&#45;&gt;Node2 -->
<g id="edge1" class="edge">
<title>Node1&#45;&gt;Node2</title>
<path fill="none" stroke="#63b8ff" d="M331.66,-20.5C323.26,-20.5 314.57,-20.5 306.25,-20.5"/>
<polygon fill="#63b8ff" stroke="#63b8ff" points="331.71,-24 341.71,-20.5 331.71,-17 331.71,-24"/>
</g>
<!-- Node3 -->
<g id="node3" class="node">
<title>Node3</title>
<g id="a_node3"><a xlink:href="../../d2/dce/classdoxygen__documentation__example_1_1_controllers_1_1_user_controller.html#ae7113017c4977bc47f7d040773a6721e" target="_top" xlink:title=" ">
<polygon fill="white" stroke="#666666" points="176,-41 0,-41 0,0 176,0 176,-41"/>
<text text-anchor="start" x="8" y="-29" font-family="Helvetica,sans-Serif" font-size="10.00">doxygen_documentation</text>
<text text-anchor="start" x="8" y="-18" font-family="Helvetica,sans-Serif" font-size="10.00">_example.Controllers.UserController.</text>
<text text-anchor="middle" x="88" y="-7" font-family="Helvetica,sans-Serif" font-size="10.00">GetAllUsers</text>
</a>
</g>
</g>
<!-- Node2&#45;&gt;Node3 -->
<g id="edge2" class="edge">
<title>Node2&#45;&gt;Node3</title>
<path fill="none" stroke="#63b8ff" d="M201.63,-20.5C193.39,-20.5 184.75,-20.5 176.07,-20.5"/>
<polygon fill="#63b8ff" stroke="#63b8ff" points="201.82,-24 211.82,-20.5 201.82,-17 201.82,-24"/>
</g>
</g>
</svg>
