<?xml version="1.0" encoding="UTF-8" standalone="no"?>
<!DOCTYPE svg PUBLIC "-//W3C//DTD SVG 1.1//EN"
 "http://www.w3.org/Graphics/SVG/1.1/DTD/svg11.dtd">
<!-- Generated by graphviz version 6.0.1 (20220911.1526)
 -->
<!-- Title: ValidOperation Pages: 1 -->
<svg width="447pt" height="157pt"
 viewBox="0.00 0.00 447.00 156.50" xmlns="http://www.w3.org/2000/svg" xmlns:xlink="http://www.w3.org/1999/xlink">
<g id="graph0" class="graph" transform="scale(1 1) rotate(0) translate(4 152.5)">
<title>ValidOperation</title>
<!-- Node1 -->
<g id="node1" class="node">
<title>Node1</title>
<g id="a_node1"><a xlink:title=" ">
<polygon fill="#999999" stroke="#666666" points="439,-89 359,-89 359,-70 439,-70 439,-89"/>
<text text-anchor="middle" x="399" y="-77" font-family="Helvetica,sans-Serif" font-size="10.00">ValidOperation</text>
</a>
</g>
</g>
<!-- Node2 -->
<g id="node2" class="node">
<title>Node2</title>
<g id="a_node2"><a xlink:href="../../dc/dea/classdoxygen__documentation__example_1_1_controllers_1_1_main_controller.html#ace3ef7f06f05386c2158b04030bc9cb1" target="_top" xlink:title=" ">
<polygon fill="white" stroke="#666666" points="323,-89 229,-89 229,-70 323,-70 323,-89"/>
<text text-anchor="middle" x="276" y="-77" font-family="Helvetica,sans-Serif" font-size="10.00">CustomResponse</text>
</a>
</g>
</g>
<!-- Node1&#45;&gt;Node2 -->
<g id="edge1" class="edge">
<title>Node1&#45;&gt;Node2</title>
<path fill="none" stroke="#63b8ff" d="M348.66,-79.5C340.26,-79.5 331.57,-79.5 323.25,-79.5"/>
<polygon fill="#63b8ff" stroke="#63b8ff" points="348.71,-83 358.71,-79.5 348.71,-76 348.71,-83"/>
</g>
<!-- Node3 -->
<g id="node3" class="node">
<title>Node3</title>
<g id="a_node3"><a xlink:href="../../d2/dce/classdoxygen__documentation__example_1_1_controllers_1_1_user_controller.html#ad69169bef3b18aee5b0ab6cace0afd54" target="_top" xlink:title=" ">
<polygon fill="white" stroke="#666666" points="193,-148.5 0,-148.5 0,-118.5 193,-118.5 193,-148.5"/>
<text text-anchor="start" x="8" y="-136.5" font-family="Helvetica,sans-Serif" font-size="10.00">doxygen_documentation</text>
<text text-anchor="middle" x="96.5" y="-125.5" font-family="Helvetica,sans-Serif" font-size="10.00">_example.Controllers.UserController.Add</text>
</a>
</g>
</g>
<!-- Node2&#45;&gt;Node3 -->
<g id="edge2" class="edge">
<title>Node2&#45;&gt;Node3</title>
<path fill="none" stroke="#63b8ff" d="M241.16,-92.78C226.48,-98.31 209.01,-104.57 193,-109.5 182.79,-112.64 171.87,-115.68 161.2,-118.48"/>
<polygon fill="#63b8ff" stroke="#63b8ff" points="242.73,-95.93 250.83,-89.1 240.24,-89.39 242.73,-95.93"/>
</g>
<!-- Node4 -->
<g id="node4" class="node">
<title>Node4</title>
<g id="a_node4"><a xlink:href="../../d2/dce/classdoxygen__documentation__example_1_1_controllers_1_1_user_controller.html#a2373be97fadf75267ad52dbf3b1fe5e2" target="_top" xlink:title=" ">
<polygon fill="white" stroke="#666666" points="184.5,-100 8.5,-100 8.5,-59 184.5,-59 184.5,-100"/>
<text text-anchor="start" x="16.5" y="-88" font-family="Helvetica,sans-Serif" font-size="10.00">doxygen_documentation</text>
<text text-anchor="start" x="16.5" y="-77" font-family="Helvetica,sans-Serif" font-size="10.00">_example.Controllers.UserController.</text>
<text text-anchor="middle" x="96.5" y="-66" font-family="Helvetica,sans-Serif" font-size="10.00">GetAll</text>
</a>
</g>
</g>
<!-- Node2&#45;&gt;Node4 -->
<g id="edge3" class="edge">
<title>Node2&#45;&gt;Node4</title>
<path fill="none" stroke="#63b8ff" d="M218.7,-79.5C207.86,-79.5 196.28,-79.5 184.73,-79.5"/>
<polygon fill="#63b8ff" stroke="#63b8ff" points="218.83,-83 228.83,-79.5 218.83,-76 218.83,-83"/>
</g>
<!-- Node5 -->
<g id="node5" class="node">
<title>Node5</title>
<g id="a_node5"><a xlink:href="../../d2/dce/classdoxygen__documentation__example_1_1_controllers_1_1_user_controller.html#ac70317398e9d84a3112934e6a6cbc3c7" target="_top" xlink:title=" ">
<polygon fill="white" stroke="#666666" points="184.5,-41 8.5,-41 8.5,0 184.5,0 184.5,-41"/>
<text text-anchor="start" x="16.5" y="-29" font-family="Helvetica,sans-Serif" font-size="10.00">doxygen_documentation</text>
<text text-anchor="start" x="16.5" y="-18" font-family="Helvetica,sans-Serif" font-size="10.00">_example.Controllers.UserController.</text>
<text text-anchor="middle" x="96.5" y="-7" font-family="Helvetica,sans-Serif" font-size="10.00">GetById</text>
</a>
</g>
</g>
<!-- Node2&#45;&gt;Node5 -->
<g id="edge4" class="edge">
<title>Node2&#45;&gt;Node5</title>
<path fill="none" stroke="#63b8ff" d="M239.35,-66.58C224.99,-61.46 208.25,-55.59 193,-50.5 183.6,-47.36 173.66,-44.14 163.87,-41.02"/>
<polygon fill="#63b8ff" stroke="#63b8ff" points="238.27,-69.91 248.86,-69.99 240.63,-63.32 238.27,-69.91"/>
</g>
</g>
</svg>
