<?xml version="1.0" encoding="UTF-8" standalone="no"?>
<!DOCTYPE svg PUBLIC "-//W3C//DTD SVG 1.1//EN"
 "http://www.w3.org/Graphics/SVG/1.1/DTD/svg11.dtd">
<!-- Generated by graphviz version 6.0.1 (20220911.1526)
 -->
<!-- Title: GetAll Pages: 1 -->
<svg width="476pt" height="108pt"
 viewBox="0.00 0.00 476.00 108.00" xmlns="http://www.w3.org/2000/svg" xmlns:xlink="http://www.w3.org/1999/xlink">
<g id="graph0" class="graph" transform="scale(1 1) rotate(0) translate(4 104)">
<title>GetAll</title>
<!-- Node1 -->
<g id="node1" class="node">
<title>Node1</title>
<g id="a_node1"><a xlink:title=" ">
<polygon fill="#999999" stroke="#666666" points="44,-59 0,-59 0,-40 44,-40 44,-59"/>
<text text-anchor="middle" x="22" y="-47" font-family="Helvetica,sans-Serif" font-size="10.00">GetAll</text>
</a>
</g>
</g>
<!-- Node2 -->
<g id="node2" class="node">
<title>Node2</title>
<g id="a_node2"><a xlink:href="../../dc/dea/classdoxygen__documentation__example_1_1_controllers_1_1_main_controller.html#ace3ef7f06f05386c2158b04030bc9cb1" target="_top" xlink:title=" ">
<polygon fill="white" stroke="#666666" points="256,-100 80,-100 80,-59 256,-59 256,-100"/>
<text text-anchor="start" x="88" y="-88" font-family="Helvetica,sans-Serif" font-size="10.00">doxygen_documentation</text>
<text text-anchor="start" x="88" y="-77" font-family="Helvetica,sans-Serif" font-size="10.00">_example.Controllers.MainController.</text>
<text text-anchor="middle" x="168" y="-66" font-family="Helvetica,sans-Serif" font-size="10.00">CustomResponse</text>
</a>
</g>
</g>
<!-- Node1&#45;&gt;Node2 -->
<g id="edge1" class="edge">
<title>Node1&#45;&gt;Node2</title>
<path fill="none" stroke="#63b8ff" d="M44.25,-53.93C51.56,-55.45 60.3,-57.27 69.7,-59.23"/>
<polygon fill="#63b8ff" stroke="#63b8ff" points="69.2,-62.7 79.7,-61.31 70.62,-55.85 69.2,-62.7"/>
</g>
<!-- Node4 -->
<g id="node4" class="node">
<title>Node4</title>
<g id="a_node4"><a xlink:href="../../d5/d68/interfacedoxygen__documentation__example_1_1_data_1_1_repositories_1_1_i_generic_repository.html#aa1bbf758d8ad2e279c1075e082c5ca63" target="_top" xlink:title=" ">
<polygon fill="white" stroke="#666666" points="246.5,-41 89.5,-41 89.5,0 246.5,0 246.5,-41"/>
<text text-anchor="start" x="97.5" y="-29" font-family="Helvetica,sans-Serif" font-size="10.00">doxygen_documentation</text>
<text text-anchor="start" x="97.5" y="-18" font-family="Helvetica,sans-Serif" font-size="10.00">_example.Data.Repositories.</text>
<text text-anchor="middle" x="168" y="-7" font-family="Helvetica,sans-Serif" font-size="10.00">IGenericRepository.GetAllAsync</text>
</a>
</g>
</g>
<!-- Node1&#45;&gt;Node4 -->
<g id="edge3" class="edge">
<title>Node1&#45;&gt;Node4</title>
<path fill="none" stroke="#63b8ff" d="M44.25,-45.22C53.97,-43.26 66.21,-40.8 79.17,-38.19"/>
<polygon fill="#63b8ff" stroke="#63b8ff" points="80.08,-41.58 89.19,-36.17 78.7,-34.71 80.08,-41.58"/>
</g>
<!-- Node3 -->
<g id="node3" class="node">
<title>Node3</title>
<g id="a_node3"><a xlink:href="../../dc/dea/classdoxygen__documentation__example_1_1_controllers_1_1_main_controller.html#a726e25721df6532dd47830465ff91ad7" target="_top" xlink:title=" ">
<polygon fill="white" stroke="#666666" points="468,-100 292,-100 292,-59 468,-59 468,-100"/>
<text text-anchor="start" x="300" y="-88" font-family="Helvetica,sans-Serif" font-size="10.00">doxygen_documentation</text>
<text text-anchor="start" x="300" y="-77" font-family="Helvetica,sans-Serif" font-size="10.00">_example.Controllers.MainController.</text>
<text text-anchor="middle" x="380" y="-66" font-family="Helvetica,sans-Serif" font-size="10.00">ValidOperation</text>
</a>
</g>
</g>
<!-- Node2&#45;&gt;Node3 -->
<g id="edge2" class="edge">
<title>Node2&#45;&gt;Node3</title>
<path fill="none" stroke="#63b8ff" d="M256.23,-79.5C264.57,-79.5 273.05,-79.5 281.47,-79.5"/>
<polygon fill="#63b8ff" stroke="#63b8ff" points="281.7,-83 291.7,-79.5 281.7,-76 281.7,-83"/>
</g>
</g>
</svg>
