<?xml version="1.0" encoding="UTF-8" standalone="no"?>
<!DOCTYPE svg PUBLIC "-//W3C//DTD SVG 1.1//EN"
 "http://www.w3.org/Graphics/SVG/1.1/DTD/svg11.dtd">
<!-- Generated by graphviz version 6.0.1 (20220911.1526)
 -->
<!-- Title: GetById Pages: 1 -->
<svg width="484pt" height="108pt"
 viewBox="0.00 0.00 484.00 108.00" xmlns="http://www.w3.org/2000/svg" xmlns:xlink="http://www.w3.org/1999/xlink">
<g id="graph0" class="graph" transform="scale(1 1) rotate(0) translate(4 104)">
<title>GetById</title>
<!-- Node1 -->
<g id="node1" class="node">
<title>Node1</title>
<g id="a_node1"><a xlink:title=" ">
<polygon fill="#999999" stroke="#666666" points="52,-59 0,-59 0,-40 52,-40 52,-59"/>
<text text-anchor="middle" x="26" y="-47" font-family="Helvetica,sans-Serif" font-size="10.00">GetById</text>
</a>
</g>
</g>
<!-- Node2 -->
<g id="node2" class="node">
<title>Node2</title>
<g id="a_node2"><a xlink:href="../../dc/dea/classdoxygen__documentation__example_1_1_controllers_1_1_main_controller.html#ace3ef7f06f05386c2158b04030bc9cb1" target="_top" xlink:title=" ">
<polygon fill="white" stroke="#666666" points="264,-100 88,-100 88,-59 264,-59 264,-100"/>
<text text-anchor="start" x="96" y="-88" font-family="Helvetica,sans-Serif" font-size="10.00">doxygen_documentation</text>
<text text-anchor="start" x="96" y="-77" font-family="Helvetica,sans-Serif" font-size="10.00">_example.Controllers.MainController.</text>
<text text-anchor="middle" x="176" y="-66" font-family="Helvetica,sans-Serif" font-size="10.00">CustomResponse</text>
</a>
</g>
</g>
<!-- Node1&#45;&gt;Node2 -->
<g id="edge1" class="edge">
<title>Node1&#45;&gt;Node2</title>
<path fill="none" stroke="#63b8ff" d="M52.11,-54.59C59.7,-56.13 68.53,-57.92 77.91,-59.82"/>
<polygon fill="#63b8ff" stroke="#63b8ff" points="77.36,-63.28 87.86,-61.84 78.75,-56.42 77.36,-63.28"/>
</g>
<!-- Node4 -->
<g id="node4" class="node">
<title>Node4</title>
<g id="a_node4"><a xlink:href="../../d5/d68/interfacedoxygen__documentation__example_1_1_data_1_1_repositories_1_1_i_generic_repository.html#a60a68c3bfd04549cb96344c43642778e" target="_top" xlink:title=" ">
<polygon fill="white" stroke="#666666" points="258.5,-41 93.5,-41 93.5,0 258.5,0 258.5,-41"/>
<text text-anchor="start" x="101.5" y="-29" font-family="Helvetica,sans-Serif" font-size="10.00">doxygen_documentation</text>
<text text-anchor="start" x="101.5" y="-18" font-family="Helvetica,sans-Serif" font-size="10.00">_example.Data.Repositories.</text>
<text text-anchor="middle" x="176" y="-7" font-family="Helvetica,sans-Serif" font-size="10.00">IGenericRepository.GetByIdAsync</text>
</a>
</g>
</g>
<!-- Node1&#45;&gt;Node4 -->
<g id="edge3" class="edge">
<title>Node1&#45;&gt;Node4</title>
<path fill="none" stroke="#63b8ff" d="M52.11,-44.58C61.1,-42.82 71.84,-40.71 83.17,-38.49"/>
<polygon fill="#63b8ff" stroke="#63b8ff" points="84.11,-41.88 93.25,-36.52 82.76,-35.01 84.11,-41.88"/>
</g>
<!-- Node3 -->
<g id="node3" class="node">
<title>Node3</title>
<g id="a_node3"><a xlink:href="../../dc/dea/classdoxygen__documentation__example_1_1_controllers_1_1_main_controller.html#a726e25721df6532dd47830465ff91ad7" target="_top" xlink:title=" ">
<polygon fill="white" stroke="#666666" points="476,-100 300,-100 300,-59 476,-59 476,-100"/>
<text text-anchor="start" x="308" y="-88" font-family="Helvetica,sans-Serif" font-size="10.00">doxygen_documentation</text>
<text text-anchor="start" x="308" y="-77" font-family="Helvetica,sans-Serif" font-size="10.00">_example.Controllers.MainController.</text>
<text text-anchor="middle" x="388" y="-66" font-family="Helvetica,sans-Serif" font-size="10.00">ValidOperation</text>
</a>
</g>
</g>
<!-- Node2&#45;&gt;Node3 -->
<g id="edge2" class="edge">
<title>Node2&#45;&gt;Node3</title>
<path fill="none" stroke="#63b8ff" d="M264.23,-79.5C272.57,-79.5 281.05,-79.5 289.47,-79.5"/>
<polygon fill="#63b8ff" stroke="#63b8ff" points="289.7,-83 299.7,-79.5 289.7,-76 289.7,-83"/>
</g>
</g>
</svg>
