<?xml version="1.0" encoding="UTF-8" standalone="no"?>
<!DOCTYPE svg PUBLIC "-//W3C//DTD SVG 1.1//EN"
 "http://www.w3.org/Graphics/SVG/1.1/DTD/svg11.dtd">
<!-- Generated by graphviz version 6.0.1 (20220911.1526)
 -->
<!-- Title: GetAllUsers Pages: 1 -->
<svg width="501pt" height="49pt"
 viewBox="0.00 0.00 501.00 49.00" xmlns="http://www.w3.org/2000/svg" xmlns:xlink="http://www.w3.org/1999/xlink">
<g id="graph0" class="graph" transform="scale(1 1) rotate(0) translate(4 45)">
<title>GetAllUsers</title>
<!-- Node1 -->
<g id="node1" class="node">
<title>Node1</title>
<g id="a_node1"><a xlink:title=" ">
<polygon fill="#999999" stroke="#666666" points="69,-30 0,-30 0,-11 69,-11 69,-30"/>
<text text-anchor="middle" x="34.5" y="-18" font-family="Helvetica,sans-Serif" font-size="10.00">GetAllUsers</text>
</a>
</g>
</g>
<!-- Node2 -->
<g id="node2" class="node">
<title>Node2</title>
<g id="a_node2"><a xlink:href="../../dc/dea/classdoxygen__documentation__example_1_1_controllers_1_1_main_controller.html#ace3ef7f06f05386c2158b04030bc9cb1" target="_top" xlink:title=" ">
<polygon fill="white" stroke="#666666" points="281,-41 105,-41 105,0 281,0 281,-41"/>
<text text-anchor="start" x="113" y="-29" font-family="Helvetica,sans-Serif" font-size="10.00">doxygen_documentation</text>
<text text-anchor="start" x="113" y="-18" font-family="Helvetica,sans-Serif" font-size="10.00">_example.Controllers.MainController.</text>
<text text-anchor="middle" x="193" y="-7" font-family="Helvetica,sans-Serif" font-size="10.00">CustomResponse</text>
</a>
</g>
</g>
<!-- Node1&#45;&gt;Node2 -->
<g id="edge1" class="edge">
<title>Node1&#45;&gt;Node2</title>
<path fill="none" stroke="#63b8ff" d="M69.07,-20.5C76.92,-20.5 85.67,-20.5 94.79,-20.5"/>
<polygon fill="#63b8ff" stroke="#63b8ff" points="94.8,-24 104.8,-20.5 94.8,-17 94.8,-24"/>
</g>
<!-- Node3 -->
<g id="node3" class="node">
<title>Node3</title>
<g id="a_node3"><a xlink:href="../../dc/dea/classdoxygen__documentation__example_1_1_controllers_1_1_main_controller.html#a726e25721df6532dd47830465ff91ad7" target="_top" xlink:title=" ">
<polygon fill="white" stroke="#666666" points="493,-41 317,-41 317,0 493,0 493,-41"/>
<text text-anchor="start" x="325" y="-29" font-family="Helvetica,sans-Serif" font-size="10.00">doxygen_documentation</text>
<text text-anchor="start" x="325" y="-18" font-family="Helvetica,sans-Serif" font-size="10.00">_example.Controllers.MainController.</text>
<text text-anchor="middle" x="405" y="-7" font-family="Helvetica,sans-Serif" font-size="10.00">ValidOperation</text>
</a>
</g>
</g>
<!-- Node2&#45;&gt;Node3 -->
<g id="edge2" class="edge">
<title>Node2&#45;&gt;Node3</title>
<path fill="none" stroke="#63b8ff" d="M281.23,-20.5C289.57,-20.5 298.05,-20.5 306.47,-20.5"/>
<polygon fill="#63b8ff" stroke="#63b8ff" points="306.7,-24 316.7,-20.5 306.7,-17 306.7,-24"/>
</g>
</g>
</svg>
