<?xml version="1.0" encoding="UTF-8" standalone="no"?>
<!DOCTYPE svg PUBLIC "-//W3C//DTD SVG 1.1//EN"
 "http://www.w3.org/Graphics/SVG/1.1/DTD/svg11.dtd">
<!-- Generated by graphviz version 6.0.1 (20220911.1526)
 -->
<!-- Title: Add Pages: 1 -->
<svg width="466pt" height="108pt"
 viewBox="0.00 0.00 466.00 108.00" xmlns="http://www.w3.org/2000/svg" xmlns:xlink="http://www.w3.org/1999/xlink">
<g id="graph0" class="graph" transform="scale(1 1) rotate(0) translate(4 104)">
<title>Add</title>
<!-- Node1 -->
<g id="node1" class="node">
<title>Node1</title>
<g id="a_node1"><a xlink:title=" ">
<polygon fill="#999999" stroke="#666666" points="34,-59 0,-59 0,-40 34,-40 34,-59"/>
<text text-anchor="middle" x="17" y="-47" font-family="Helvetica,sans-Serif" font-size="10.00">Add</text>
</a>
</g>
</g>
<!-- Node2 -->
<g id="node2" class="node">
<title>Node2</title>
<g id="a_node2"><a xlink:href="../../d5/d68/interfacedoxygen__documentation__example_1_1_data_1_1_repositories_1_1_i_generic_repository.html#ac9d60da02ae436e7a1a07e7ad78bdea7" target="_top" xlink:title=" ">
<polygon fill="white" stroke="#666666" points="231.5,-100 84.5,-100 84.5,-59 231.5,-59 231.5,-100"/>
<text text-anchor="start" x="92.5" y="-88" font-family="Helvetica,sans-Serif" font-size="10.00">doxygen_documentation</text>
<text text-anchor="start" x="92.5" y="-77" font-family="Helvetica,sans-Serif" font-size="10.00">_example.Data.Repositories.</text>
<text text-anchor="middle" x="158" y="-66" font-family="Helvetica,sans-Serif" font-size="10.00">IGenericRepository.AddAsync</text>
</a>
</g>
</g>
<!-- Node1&#45;&gt;Node2 -->
<g id="edge1" class="edge">
<title>Node1&#45;&gt;Node2</title>
<path fill="none" stroke="#63b8ff" d="M34.22,-53C44.62,-55.24 58.99,-58.35 74.25,-61.64"/>
<polygon fill="#63b8ff" stroke="#63b8ff" points="73.86,-65.14 84.37,-63.83 75.34,-58.29 73.86,-65.14"/>
</g>
<!-- Node3 -->
<g id="node3" class="node">
<title>Node3</title>
<g id="a_node3"><a xlink:href="../../dc/dea/classdoxygen__documentation__example_1_1_controllers_1_1_main_controller.html#ace3ef7f06f05386c2158b04030bc9cb1" target="_top" xlink:title=" ">
<polygon fill="white" stroke="#666666" points="246,-41 70,-41 70,0 246,0 246,-41"/>
<text text-anchor="start" x="78" y="-29" font-family="Helvetica,sans-Serif" font-size="10.00">doxygen_documentation</text>
<text text-anchor="start" x="78" y="-18" font-family="Helvetica,sans-Serif" font-size="10.00">_example.Controllers.MainController.</text>
<text text-anchor="middle" x="158" y="-7" font-family="Helvetica,sans-Serif" font-size="10.00">CustomResponse</text>
</a>
</g>
</g>
<!-- Node1&#45;&gt;Node3 -->
<g id="edge2" class="edge">
<title>Node1&#45;&gt;Node3</title>
<path fill="none" stroke="#63b8ff" d="M34.22,-46.12C41.25,-44.65 50.11,-42.8 59.83,-40.77"/>
<polygon fill="#63b8ff" stroke="#63b8ff" points="60.73,-44.16 69.8,-38.69 59.3,-37.31 60.73,-44.16"/>
</g>
<!-- Node4 -->
<g id="node4" class="node">
<title>Node4</title>
<g id="a_node4"><a xlink:href="../../dc/dea/classdoxygen__documentation__example_1_1_controllers_1_1_main_controller.html#a726e25721df6532dd47830465ff91ad7" target="_top" xlink:title=" ">
<polygon fill="white" stroke="#666666" points="458,-41 282,-41 282,0 458,0 458,-41"/>
<text text-anchor="start" x="290" y="-29" font-family="Helvetica,sans-Serif" font-size="10.00">doxygen_documentation</text>
<text text-anchor="start" x="290" y="-18" font-family="Helvetica,sans-Serif" font-size="10.00">_example.Controllers.MainController.</text>
<text text-anchor="middle" x="370" y="-7" font-family="Helvetica,sans-Serif" font-size="10.00">ValidOperation</text>
</a>
</g>
</g>
<!-- Node3&#45;&gt;Node4 -->
<g id="edge3" class="edge">
<title>Node3&#45;&gt;Node4</title>
<path fill="none" stroke="#63b8ff" d="M246.23,-20.5C254.57,-20.5 263.05,-20.5 271.47,-20.5"/>
<polygon fill="#63b8ff" stroke="#63b8ff" points="271.7,-24 281.7,-20.5 271.7,-17 271.7,-24"/>
</g>
</g>
</svg>
