<?xml version="1.0" encoding="UTF-8" standalone="no"?>
<!DOCTYPE svg PUBLIC "-//W3C//DTD SVG 1.1//EN"
 "http://www.w3.org/Graphics/SVG/1.1/DTD/svg11.dtd">
<!-- Generated by graphviz version 6.0.1 (20220911.1526)
 -->
<!-- Title: MainController Pages: 1 -->
<svg width="194pt" height="148pt"
 viewBox="0.00 0.00 194.00 148.00" xmlns="http://www.w3.org/2000/svg" xmlns:xlink="http://www.w3.org/1999/xlink">
<g id="graph0" class="graph" transform="scale(1 1) rotate(0) translate(4 144)">
<title>MainController</title>
<!-- Node1 -->
<g id="node1" class="node">
<title>Node1</title>
<g id="a_node1"><a xlink:title=" ">
<polygon fill="#999999" stroke="#666666" points="163,-63 0,-63 0,0 163,0 163,-63"/>
<text text-anchor="middle" x="81.5" y="-51" font-family="Helvetica,sans-Serif" font-size="10.00">{MainController</text>
<text text-anchor="start" x="8" y="-40" font-family="Helvetica,sans-Serif" font-size="10.00">||# bool ValidOperation()</text>
<text text-anchor="start" x="8" y="-29" font-family="Helvetica,sans-Serif" font-size="10.00"># IActionResult CustomResponse</text>
<text text-anchor="start" x="8" y="-18" font-family="Helvetica,sans-Serif" font-size="10.00">(object result=null)</text>
<text text-anchor="middle" x="81.5" y="-7" font-family="Helvetica,sans-Serif" font-size="10.00">}</text>
</a>
</g>
</g>
<!-- Node2 -->
<g id="node2" class="node">
<title>Node2</title>
<g id="a_node2"><a xlink:href="../../d8/d87/class_controller.html" target="_top" xlink:title=" ">
<polygon fill="white" stroke="#666666" points="61,-140 0,-140 0,-110 61,-110 61,-140"/>
<text text-anchor="middle" x="30.5" y="-128" font-family="Helvetica,sans-Serif" font-size="10.00">{Controller</text>
<text text-anchor="middle" x="30.5" y="-117" font-family="Helvetica,sans-Serif" font-size="10.00">||}</text>
</a>
</g>
</g>
<!-- Node2&#45;&gt;Node1 -->
<g id="edge1" class="edge">
<title>Node2&#45;&gt;Node1</title>
<path fill="none" stroke="#63b8ff" d="M43.42,-100.83C49.75,-89.46 57.48,-75.6 64.3,-63.35"/>
<polygon fill="none" stroke="#63b8ff" points="40.28,-99.26 38.47,-109.7 46.39,-102.67 40.28,-99.26"/>
</g>
<!-- Node3 -->
<g id="node3" class="node">
<title>Node3</title>
<g id="a_node3"><a xlink:title=" ">
<polygon fill="white" stroke="#666666" points="186,-140 79,-140 79,-110 186,-110 186,-140"/>
<text text-anchor="middle" x="132.5" y="-128" font-family="Helvetica,sans-Serif" font-size="10.00">{ICollection&lt; string &gt;</text>
<text text-anchor="middle" x="132.5" y="-117" font-family="Helvetica,sans-Serif" font-size="10.00">||}</text>
</a>
</g>
</g>
<!-- Node3&#45;&gt;Node1 -->
<g id="edge2" class="edge">
<title>Node3&#45;&gt;Node1</title>
<path fill="none" stroke="#404040" d="M124.53,-109.7C119.15,-100.04 111.74,-86.76 104.59,-73.93"/>
<polygon fill="none" stroke="#404040" points="104.54,-73.83 98.12,-70.54 98.7,-63.35 105.11,-66.64 104.54,-73.83"/>
<text text-anchor="middle" x="132" y="-84" font-family="Helvetica,sans-Serif" font-size="10.00"> #Errors</text>
</g>
</g>
</svg>
