<?xml version="1.0" encoding="UTF-8" standalone="no"?>
<!DOCTYPE svg PUBLIC "-//W3C//DTD SVG 1.1//EN"
 "http://www.w3.org/Graphics/SVG/1.1/DTD/svg11.dtd">
<!-- Generated by graphviz version 6.0.1 (20220911.1526)
 -->
<!-- Title: Context Pages: 1 -->
<svg width="182pt" height="148pt"
 viewBox="0.00 0.00 182.00 148.00" xmlns="http://www.w3.org/2000/svg" xmlns:xlink="http://www.w3.org/1999/xlink">
<g id="graph0" class="graph" transform="scale(1 1) rotate(0) translate(4 144)">
<title>Context</title>
<!-- Node1 -->
<g id="node1" class="node">
<title>Node1</title>
<g id="a_node1"><a xlink:title=" ">
<polygon fill="#999999" stroke="#666666" points="174,-63 0,-63 0,0 174,0 174,-63"/>
<text text-anchor="middle" x="87" y="-51" font-family="Helvetica,sans-Serif" font-size="10.00">{Context</text>
<text text-anchor="start" x="8" y="-40" font-family="Helvetica,sans-Serif" font-size="10.00">||+ &#160;Context(IConfiguration</text>
<text text-anchor="start" x="8" y="-29" font-family="Helvetica,sans-Serif" font-size="10.00"> config)</text>
<text text-anchor="start" x="8" y="-18" font-family="Helvetica,sans-Serif" font-size="10.00">+ IDbConnection GetDbConnection()</text>
<text text-anchor="middle" x="87" y="-7" font-family="Helvetica,sans-Serif" font-size="10.00">}</text>
</a>
</g>
</g>
<!-- Node2 -->
<g id="node2" class="node">
<title>Node2</title>
<g id="a_node2"><a xlink:title=" ">
<polygon fill="white" stroke="#666666" points="126,-140 48,-140 48,-110 126,-110 126,-140"/>
<text text-anchor="middle" x="87" y="-128" font-family="Helvetica,sans-Serif" font-size="10.00">{IConfiguration</text>
<text text-anchor="middle" x="87" y="-117" font-family="Helvetica,sans-Serif" font-size="10.00">||}</text>
</a>
</g>
</g>
<!-- Node2&#45;&gt;Node1 -->
<g id="edge1" class="edge">
<title>Node2&#45;&gt;Node1</title>
<path fill="none" stroke="#404040" d="M87,-109.7C87,-100.43 87,-87.81 87,-75.47"/>
<polygon fill="none" stroke="#404040" points="87,-75.35 83,-69.35 87,-63.35 91,-69.35 87,-75.35"/>
<text text-anchor="middle" x="105.5" y="-84" font-family="Helvetica,sans-Serif" font-size="10.00"> &#45;_config</text>
</g>
</g>
</svg>
