<?xml version="1.0" encoding="UTF-8" standalone="no"?>
<!DOCTYPE svg PUBLIC "-//W3C//DTD SVG 1.1//EN"
 "http://www.w3.org/Graphics/SVG/1.1/DTD/svg11.dtd">
<!-- Generated by graphviz version 6.0.1 (20220911.1526)
 -->
<!-- Title: Database Pages: 1 -->
<svg width="182pt" height="258pt"
 viewBox="0.00 0.00 182.00 258.00" xmlns="http://www.w3.org/2000/svg" xmlns:xlink="http://www.w3.org/1999/xlink">
<g id="graph0" class="graph" transform="scale(1 1) rotate(0) translate(4 254)">
<title>Database</title>
<!-- Node1 -->
<g id="node1" class="node">
<title>Node1</title>
<g id="a_node1"><a xlink:title=" ">
<polygon fill="#999999" stroke="#666666" points="161.5,-63 12.5,-63 12.5,0 161.5,0 161.5,-63"/>
<text text-anchor="middle" x="87" y="-51" font-family="Helvetica,sans-Serif" font-size="10.00">{Database</text>
<text text-anchor="start" x="20.5" y="-40" font-family="Helvetica,sans-Serif" font-size="10.00">||+ &#160;Database(Context context)</text>
<text text-anchor="start" x="20.5" y="-29" font-family="Helvetica,sans-Serif" font-size="10.00">+ void CreateDatabase</text>
<text text-anchor="start" x="20.5" y="-18" font-family="Helvetica,sans-Serif" font-size="10.00">(string dbName)</text>
<text text-anchor="middle" x="87" y="-7" font-family="Helvetica,sans-Serif" font-size="10.00">}</text>
</a>
</g>
</g>
<!-- Node2 -->
<g id="node2" class="node">
<title>Node2</title>
<g id="a_node2"><a xlink:href="../../dc/df1/classdoxygen__documentation__example_1_1_data_1_1_context.html" target="_top" xlink:title=" ">
<polygon fill="white" stroke="#666666" points="174,-173 0,-173 0,-110 174,-110 174,-173"/>
<text text-anchor="middle" x="87" y="-161" font-family="Helvetica,sans-Serif" font-size="10.00">{Context</text>
<text text-anchor="start" x="8" y="-150" font-family="Helvetica,sans-Serif" font-size="10.00">||+ &#160;Context(IConfiguration</text>
<text text-anchor="start" x="8" y="-139" font-family="Helvetica,sans-Serif" font-size="10.00"> config)</text>
<text text-anchor="start" x="8" y="-128" font-family="Helvetica,sans-Serif" font-size="10.00">+ IDbConnection GetDbConnection()</text>
<text text-anchor="middle" x="87" y="-117" font-family="Helvetica,sans-Serif" font-size="10.00">}</text>
</a>
</g>
</g>
<!-- Node2&#45;&gt;Node1 -->
<g id="edge1" class="edge">
<title>Node2&#45;&gt;Node1</title>
<path fill="none" stroke="#404040" d="M87,-109.84C87,-99.12 87,-86.89 87,-75.36"/>
<polygon fill="none" stroke="#404040" points="87,-75.24 83,-69.24 87,-63.24 91,-69.24 87,-75.24"/>
<text text-anchor="middle" x="109" y="-84" font-family="Helvetica,sans-Serif" font-size="10.00"> &#45;_context</text>
</g>
<!-- Node3 -->
<g id="node3" class="node">
<title>Node3</title>
<g id="a_node3"><a xlink:title=" ">
<polygon fill="white" stroke="#666666" points="126,-250 48,-250 48,-220 126,-220 126,-250"/>
<text text-anchor="middle" x="87" y="-238" font-family="Helvetica,sans-Serif" font-size="10.00">{IConfiguration</text>
<text text-anchor="middle" x="87" y="-227" font-family="Helvetica,sans-Serif" font-size="10.00">||}</text>
</a>
</g>
</g>
<!-- Node3&#45;&gt;Node2 -->
<g id="edge2" class="edge">
<title>Node3&#45;&gt;Node2</title>
<path fill="none" stroke="#404040" d="M87,-219.7C87,-210.43 87,-197.81 87,-185.47"/>
<polygon fill="none" stroke="#404040" points="87,-185.35 83,-179.35 87,-173.35 91,-179.35 87,-185.35"/>
<text text-anchor="middle" x="105.5" y="-194" font-family="Helvetica,sans-Serif" font-size="10.00"> &#45;_config</text>
</g>
</g>
</svg>
