<?xml version="1.0" encoding="UTF-8" standalone="no"?>
<!DOCTYPE svg PUBLIC "-//W3C//DTD SVG 1.1//EN"
 "http://www.w3.org/Graphics/SVG/1.1/DTD/svg11.dtd">
<!-- Generated by graphviz version 6.0.1 (20220911.1526)
 -->
<!-- Title: GetDbConnection Pages: 1 -->
<svg width="473pt" height="344pt"
 viewBox="0.00 0.00 473.00 344.00" xmlns="http://www.w3.org/2000/svg" xmlns:xlink="http://www.w3.org/1999/xlink">
<g id="graph0" class="graph" transform="scale(1 1) rotate(0) translate(4 340)">
<title>GetDbConnection</title>
<!-- Node1 -->
<g id="node1" class="node">
<title>Node1</title>
<g id="a_node1"><a xlink:title=" ">
<polygon fill="#999999" stroke="#666666" points="465,-177 372,-177 372,-158 465,-158 465,-177"/>
<text text-anchor="middle" x="418.5" y="-165" font-family="Helvetica,sans-Serif" font-size="10.00">GetDbConnection</text>
</a>
</g>
</g>
<!-- Node2 -->
<g id="node2" class="node">
<title>Node2</title>
<g id="a_node2"><a xlink:href="../../dd/d8d/classdoxygen__documentation__example_1_1_data_1_1_repositories_1_1_user_repository.html#ac74c030710594161600f490b943dd2d3" target="_top" xlink:title=" ">
<polygon fill="white" stroke="#666666" points="328,-336 186,-336 186,-295 328,-295 328,-336"/>
<text text-anchor="start" x="194" y="-324" font-family="Helvetica,sans-Serif" font-size="10.00">doxygen_documentation</text>
<text text-anchor="start" x="194" y="-313" font-family="Helvetica,sans-Serif" font-size="10.00">_example.Data.Repositories.</text>
<text text-anchor="middle" x="257" y="-302" font-family="Helvetica,sans-Serif" font-size="10.00">UserRepository.AddAsync</text>
</a>
</g>
</g>
<!-- Node1&#45;&gt;Node2 -->
<g id="edge1" class="edge">
<title>Node1&#45;&gt;Node2</title>
<path fill="none" stroke="#63b8ff" d="M409.08,-186.51C396.65,-212.54 371.02,-259.15 336,-286.5 332.02,-289.61 327.66,-292.42 323.12,-294.94"/>
<polygon fill="#63b8ff" stroke="#63b8ff" points="412.31,-187.87 413.32,-177.33 405.95,-184.94 412.31,-187.87"/>
</g>
<!-- Node4 -->
<g id="node4" class="node">
<title>Node4</title>
<g id="a_node4"><a xlink:href="../../d0/d97/classdoxygen__documentation__example_1_1_data_1_1_database.html#a4a48cdac4af4524a88852b4a210f562b" target="_top" xlink:title=" ">
<polygon fill="white" stroke="#666666" points="336,-277 178,-277 178,-236 336,-236 336,-277"/>
<text text-anchor="start" x="186" y="-265" font-family="Helvetica,sans-Serif" font-size="10.00">doxygen_documentation</text>
<text text-anchor="start" x="186" y="-254" font-family="Helvetica,sans-Serif" font-size="10.00">_example.Data.Database.Create</text>
<text text-anchor="middle" x="257" y="-243" font-family="Helvetica,sans-Serif" font-size="10.00">Database</text>
</a>
</g>
</g>
<!-- Node1&#45;&gt;Node4 -->
<g id="edge3" class="edge">
<title>Node1&#45;&gt;Node4</title>
<path fill="none" stroke="#63b8ff" d="M398.6,-183.79C382.7,-196.9 358.96,-215.1 336,-227.5 330.41,-230.52 324.43,-233.36 318.37,-235.99"/>
<polygon fill="#63b8ff" stroke="#63b8ff" points="401.16,-186.22 406.57,-177.11 396.66,-180.86 401.16,-186.22"/>
</g>
<!-- Node5 -->
<g id="node5" class="node">
<title>Node5</title>
<g id="a_node5"><a xlink:href="../../dd/d8d/classdoxygen__documentation__example_1_1_data_1_1_repositories_1_1_user_repository.html#aba2586b4949e10739f2b166634dd91c3" target="_top" xlink:title=" ">
<polygon fill="white" stroke="#666666" points="328,-218 186,-218 186,-177 328,-177 328,-218"/>
<text text-anchor="start" x="194" y="-206" font-family="Helvetica,sans-Serif" font-size="10.00">doxygen_documentation</text>
<text text-anchor="start" x="194" y="-195" font-family="Helvetica,sans-Serif" font-size="10.00">_example.Data.Repositories.</text>
<text text-anchor="middle" x="257" y="-184" font-family="Helvetica,sans-Serif" font-size="10.00">UserRepository.DeleteAsync</text>
</a>
</g>
</g>
<!-- Node1&#45;&gt;Node5 -->
<g id="edge4" class="edge">
<title>Node1&#45;&gt;Node5</title>
<path fill="none" stroke="#63b8ff" d="M361.64,-178.01C350.81,-180.04 339.33,-182.2 328.11,-184.31"/>
<polygon fill="#63b8ff" stroke="#63b8ff" points="362.61,-181.39 371.79,-176.1 361.32,-174.51 362.61,-181.39"/>
</g>
<!-- Node6 -->
<g id="node6" class="node">
<title>Node6</title>
<g id="a_node6"><a xlink:href="../../dd/d8d/classdoxygen__documentation__example_1_1_data_1_1_repositories_1_1_user_repository.html#a55d08d4dea647d53cdc76baea85b0aec" target="_top" xlink:title=" ">
<polygon fill="white" stroke="#666666" points="328,-159 186,-159 186,-118 328,-118 328,-159"/>
<text text-anchor="start" x="194" y="-147" font-family="Helvetica,sans-Serif" font-size="10.00">doxygen_documentation</text>
<text text-anchor="start" x="194" y="-136" font-family="Helvetica,sans-Serif" font-size="10.00">_example.Data.Repositories.</text>
<text text-anchor="middle" x="257" y="-125" font-family="Helvetica,sans-Serif" font-size="10.00">UserRepository.GetAllAsync</text>
</a>
</g>
</g>
<!-- Node1&#45;&gt;Node6 -->
<g id="edge5" class="edge">
<title>Node1&#45;&gt;Node6</title>
<path fill="none" stroke="#63b8ff" d="M361.64,-157.34C350.81,-155.37 339.33,-153.29 328.11,-151.25"/>
<polygon fill="#63b8ff" stroke="#63b8ff" points="361.33,-160.84 371.79,-159.19 362.58,-153.96 361.33,-160.84"/>
</g>
<!-- Node7 -->
<g id="node7" class="node">
<title>Node7</title>
<g id="a_node7"><a xlink:href="../../dd/d8d/classdoxygen__documentation__example_1_1_data_1_1_repositories_1_1_user_repository.html#aa71e9b45e35e3b90dab3d58b08f9cbb5" target="_top" xlink:title=" ">
<polygon fill="white" stroke="#666666" points="331.5,-100 182.5,-100 182.5,-59 331.5,-59 331.5,-100"/>
<text text-anchor="start" x="190.5" y="-88" font-family="Helvetica,sans-Serif" font-size="10.00">doxygen_documentation</text>
<text text-anchor="start" x="190.5" y="-77" font-family="Helvetica,sans-Serif" font-size="10.00">_example.Data.Repositories.</text>
<text text-anchor="middle" x="257" y="-66" font-family="Helvetica,sans-Serif" font-size="10.00">UserRepository.GetByIdAsync</text>
</a>
</g>
</g>
<!-- Node1&#45;&gt;Node7 -->
<g id="edge6" class="edge">
<title>Node1&#45;&gt;Node7</title>
<path fill="none" stroke="#63b8ff" d="M397.93,-151.43C381.96,-138.87 358.46,-121.56 336,-109.5 329.74,-106.14 323.01,-102.96 316.24,-100.03"/>
<polygon fill="#63b8ff" stroke="#63b8ff" points="395.97,-154.35 405.97,-157.86 400.34,-148.88 395.97,-154.35"/>
</g>
<!-- Node8 -->
<g id="node8" class="node">
<title>Node8</title>
<g id="a_node8"><a xlink:href="../../dd/d8d/classdoxygen__documentation__example_1_1_data_1_1_repositories_1_1_user_repository.html#a0c190ef463a19468f2168882f2d80ff4" target="_top" xlink:title=" ">
<polygon fill="white" stroke="#666666" points="329.5,-41 184.5,-41 184.5,0 329.5,0 329.5,-41"/>
<text text-anchor="start" x="192.5" y="-29" font-family="Helvetica,sans-Serif" font-size="10.00">doxygen_documentation</text>
<text text-anchor="start" x="192.5" y="-18" font-family="Helvetica,sans-Serif" font-size="10.00">_example.Data.Repositories.</text>
<text text-anchor="middle" x="257" y="-7" font-family="Helvetica,sans-Serif" font-size="10.00">UserRepository.UpdateAsync</text>
</a>
</g>
</g>
<!-- Node1&#45;&gt;Node8 -->
<g id="edge7" class="edge">
<title>Node1&#45;&gt;Node8</title>
<path fill="none" stroke="#63b8ff" d="M408.79,-148.53C396.15,-122.94 370.42,-77.48 336,-50.5 331.55,-47.01 326.64,-43.89 321.52,-41.1"/>
<polygon fill="#63b8ff" stroke="#63b8ff" points="405.78,-150.36 413.25,-157.87 412.1,-147.34 405.78,-150.36"/>
</g>
<!-- Node3 -->
<g id="node3" class="node">
<title>Node3</title>
<g id="a_node3"><a xlink:href="../../dd/d8d/classdoxygen__documentation__example_1_1_data_1_1_repositories_1_1_user_repository.html#aa3530cdea5f2a85cd4a9f7522f21bae0" target="_top" xlink:title=" ">
<polygon fill="white" stroke="#666666" points="142,-336 0,-336 0,-295 142,-295 142,-336"/>
<text text-anchor="start" x="8" y="-324" font-family="Helvetica,sans-Serif" font-size="10.00">doxygen_documentation</text>
<text text-anchor="start" x="8" y="-313" font-family="Helvetica,sans-Serif" font-size="10.00">_example.Data.Repositories.</text>
<text text-anchor="middle" x="71" y="-302" font-family="Helvetica,sans-Serif" font-size="10.00">UserRepository.PopulateDb</text>
</a>
</g>
</g>
<!-- Node2&#45;&gt;Node3 -->
<g id="edge2" class="edge">
<title>Node2&#45;&gt;Node3</title>
<path fill="none" stroke="#63b8ff" d="M175.74,-315.5C164.57,-315.5 153.16,-315.5 142.2,-315.5"/>
<polygon fill="#63b8ff" stroke="#63b8ff" points="175.91,-319 185.91,-315.5 175.91,-312 175.91,-319"/>
</g>
</g>
</svg>
