<?xml version="1.0" encoding="UTF-8" standalone="no"?>
<!DOCTYPE svg PUBLIC "-//W3C//DTD SVG 1.1//EN"
 "http://www.w3.org/Graphics/SVG/1.1/DTD/svg11.dtd">
<!-- Generated by graphviz version 6.0.1 (20220911.1526)
 -->
<!-- Title: UserController Pages: 1 -->
<svg width="336pt" height="269pt"
 viewBox="0.00 0.00 335.50 269.00" xmlns="http://www.w3.org/2000/svg" xmlns:xlink="http://www.w3.org/1999/xlink">
<g id="graph0" class="graph" transform="scale(1 1) rotate(0) translate(4 265)">
<title>UserController</title>
<!-- Node1 -->
<g id="node1" class="node">
<title>Node1</title>
<g id="a_node1"><a xlink:title=" ">
<polygon fill="#999999" stroke="#666666" points="251,-74 84,-74 84,0 251,0 251,-74"/>
<text text-anchor="middle" x="167.5" y="-62" font-family="Helvetica,sans-Serif" font-size="10.00">{UserController</text>
<text text-anchor="start" x="92" y="-51" font-family="Helvetica,sans-Serif" font-size="10.00">||+ &#160;UserController(IUserRepository</text>
<text text-anchor="start" x="92" y="-40" font-family="Helvetica,sans-Serif" font-size="10.00"> usersRepository)</text>
<text text-anchor="start" x="92" y="-29" font-family="Helvetica,sans-Serif" font-size="10.00">+ async Task&lt; IActionResult</text>
<text text-anchor="start" x="92" y="-18" font-family="Helvetica,sans-Serif" font-size="10.00"> &gt; GetAllUsers()</text>
<text text-anchor="middle" x="167.5" y="-7" font-family="Helvetica,sans-Serif" font-size="10.00">}</text>
</a>
</g>
</g>
<!-- Node2 -->
<g id="node2" class="node">
<title>Node2</title>
<g id="a_node2"><a xlink:href="../../dc/dea/classdoxygen__documentation__example_1_1_controllers_1_1_main_controller.html" target="_top" xlink:title=" ">
<polygon fill="white" stroke="#666666" points="163,-184 0,-184 0,-121 163,-121 163,-184"/>
<text text-anchor="middle" x="81.5" y="-172" font-family="Helvetica,sans-Serif" font-size="10.00">{MainController</text>
<text text-anchor="start" x="8" y="-161" font-family="Helvetica,sans-Serif" font-size="10.00">||# bool ValidOperation()</text>
<text text-anchor="start" x="8" y="-150" font-family="Helvetica,sans-Serif" font-size="10.00"># IActionResult CustomResponse</text>
<text text-anchor="start" x="8" y="-139" font-family="Helvetica,sans-Serif" font-size="10.00">(object result=null)</text>
<text text-anchor="middle" x="81.5" y="-128" font-family="Helvetica,sans-Serif" font-size="10.00">}</text>
</a>
</g>
</g>
<!-- Node2&#45;&gt;Node1 -->
<g id="edge1" class="edge">
<title>Node2&#45;&gt;Node1</title>
<path fill="none" stroke="#63b8ff" d="M111.07,-112.47C120.43,-100.13 130.72,-86.54 139.93,-74.38"/>
<polygon fill="none" stroke="#63b8ff" points="108.02,-110.7 104.77,-120.79 113.6,-114.93 108.02,-110.7"/>
</g>
<!-- Node3 -->
<g id="node3" class="node">
<title>Node3</title>
<g id="a_node3"><a xlink:href="../../d8/d87/class_controller.html" target="_top" xlink:title=" ">
<polygon fill="white" stroke="#666666" points="61,-261 0,-261 0,-231 61,-231 61,-261"/>
<text text-anchor="middle" x="30.5" y="-249" font-family="Helvetica,sans-Serif" font-size="10.00">{Controller</text>
<text text-anchor="middle" x="30.5" y="-238" font-family="Helvetica,sans-Serif" font-size="10.00">||}</text>
</a>
</g>
</g>
<!-- Node3&#45;&gt;Node2 -->
<g id="edge2" class="edge">
<title>Node3&#45;&gt;Node2</title>
<path fill="none" stroke="#63b8ff" d="M43.42,-221.83C49.75,-210.46 57.48,-196.6 64.3,-184.35"/>
<polygon fill="none" stroke="#63b8ff" points="40.28,-220.26 38.47,-230.7 46.39,-223.67 40.28,-220.26"/>
</g>
<!-- Node4 -->
<g id="node4" class="node">
<title>Node4</title>
<g id="a_node4"><a xlink:title=" ">
<polygon fill="white" stroke="#666666" points="186,-261 79,-261 79,-231 186,-231 186,-261"/>
<text text-anchor="middle" x="132.5" y="-249" font-family="Helvetica,sans-Serif" font-size="10.00">{ICollection&lt; string &gt;</text>
<text text-anchor="middle" x="132.5" y="-238" font-family="Helvetica,sans-Serif" font-size="10.00">||}</text>
</a>
</g>
</g>
<!-- Node4&#45;&gt;Node2 -->
<g id="edge3" class="edge">
<title>Node4&#45;&gt;Node2</title>
<path fill="none" stroke="#404040" d="M124.53,-230.7C119.15,-221.04 111.74,-207.76 104.59,-194.93"/>
<polygon fill="none" stroke="#404040" points="104.54,-194.83 98.12,-191.54 98.7,-184.35 105.11,-187.64 104.54,-194.83"/>
<text text-anchor="middle" x="133" y="-205" font-family="Helvetica,sans-Serif" font-size="10.00"> #Errors</text>
</g>
<!-- Node5 -->
<g id="node5" class="node">
<title>Node5</title>
<g id="a_node5"><a xlink:href="../../d6/de3/interfacedoxygen__documentation__example_1_1_repositories_1_1_i_user_repository.html" target="_top" xlink:title=" ">
<polygon fill="white" stroke="#666666" points="327.5,-173 181.5,-173 181.5,-132 327.5,-132 327.5,-173"/>
<text text-anchor="middle" x="254.5" y="-161" font-family="Helvetica,sans-Serif" font-size="10.00">{IUserRepository</text>
<text text-anchor="start" x="189.5" y="-150" font-family="Helvetica,sans-Serif" font-size="10.00">||+ List&lt; User &gt; GetAllUsers()</text>
<text text-anchor="middle" x="254.5" y="-139" font-family="Helvetica,sans-Serif" font-size="10.00">}</text>
</a>
</g>
</g>
<!-- Node5&#45;&gt;Node1 -->
<g id="edge4" class="edge">
<title>Node5&#45;&gt;Node1</title>
<path fill="none" stroke="#404040" d="M239.54,-131.99C229.39,-118.74 215.52,-100.65 202.67,-83.88"/>
<polygon fill="none" stroke="#404040" points="202.55,-83.72 195.72,-81.39 195.25,-74.2 202.07,-76.53 202.55,-83.72"/>
<text text-anchor="middle" x="257.5" y="-95" font-family="Helvetica,sans-Serif" font-size="10.00"> &#45;_usersRepository</text>
</g>
</g>
</svg>
