<?xml version="1.0" encoding="UTF-8" standalone="no"?>
<!DOCTYPE svg PUBLIC "-//W3C//DTD SVG 1.1//EN"
 "http://www.w3.org/Graphics/SVG/1.1/DTD/svg11.dtd">
<!-- Generated by graphviz version 6.0.1 (20220911.1526)
 -->
<!-- Title: UserController Pages: 1 -->
<svg width="314pt" height="379pt"
 viewBox="0.00 0.00 314.00 379.00" xmlns="http://www.w3.org/2000/svg" xmlns:xlink="http://www.w3.org/1999/xlink">
<g id="graph0" class="graph" transform="scale(1 1) rotate(0) translate(4 375)">
<title>UserController</title>
<!-- Node1 -->
<g id="node1" class="node">
<title>Node1</title>
<g id="a_node1"><a xlink:title=" ">
<polygon fill="#999999" stroke="#666666" points="277.5,-184 127.5,-184 127.5,0 277.5,0 277.5,-184"/>
<text text-anchor="middle" x="202.5" y="-172" font-family="Helvetica,sans-Serif" font-size="10.00">{UserController</text>
<text text-anchor="start" x="135.5" y="-161" font-family="Helvetica,sans-Serif" font-size="10.00">||+ &#160;UserController(IUnitOfWork</text>
<text text-anchor="start" x="135.5" y="-150" font-family="Helvetica,sans-Serif" font-size="10.00"> unitOfWork)</text>
<text text-anchor="start" x="135.5" y="-139" font-family="Helvetica,sans-Serif" font-size="10.00">+ async Task&lt; IActionResult</text>
<text text-anchor="start" x="135.5" y="-128" font-family="Helvetica,sans-Serif" font-size="10.00"> &gt; PopulateDb()</text>
<text text-anchor="start" x="135.5" y="-117" font-family="Helvetica,sans-Serif" font-size="10.00">+ async Task&lt; IActionResult</text>
<text text-anchor="start" x="135.5" y="-106" font-family="Helvetica,sans-Serif" font-size="10.00"> &gt; GetAll()</text>
<text text-anchor="start" x="135.5" y="-95" font-family="Helvetica,sans-Serif" font-size="10.00">+ async Task&lt; IActionResult</text>
<text text-anchor="start" x="135.5" y="-84" font-family="Helvetica,sans-Serif" font-size="10.00"> &gt; GetById(string id)</text>
<text text-anchor="start" x="135.5" y="-73" font-family="Helvetica,sans-Serif" font-size="10.00">+ async Task&lt; IActionResult</text>
<text text-anchor="start" x="135.5" y="-62" font-family="Helvetica,sans-Serif" font-size="10.00"> &gt; Add(User users)</text>
<text text-anchor="start" x="135.5" y="-51" font-family="Helvetica,sans-Serif" font-size="10.00">+ async Task&lt; IActionResult</text>
<text text-anchor="start" x="135.5" y="-40" font-family="Helvetica,sans-Serif" font-size="10.00"> &gt; Delete(string id)</text>
<text text-anchor="start" x="135.5" y="-29" font-family="Helvetica,sans-Serif" font-size="10.00">+ async Task&lt; IActionResult</text>
<text text-anchor="start" x="135.5" y="-18" font-family="Helvetica,sans-Serif" font-size="10.00"> &gt; Update(User user)</text>
<text text-anchor="middle" x="202.5" y="-7" font-family="Helvetica,sans-Serif" font-size="10.00">}</text>
</a>
</g>
</g>
<!-- Node2 -->
<g id="node2" class="node">
<title>Node2</title>
<g id="a_node2"><a xlink:href="../../dc/dea/classdoxygen__documentation__example_1_1_controllers_1_1_main_controller.html" target="_top" xlink:title=" ">
<polygon fill="white" stroke="#666666" points="163,-294 0,-294 0,-231 163,-231 163,-294"/>
<text text-anchor="middle" x="81.5" y="-282" font-family="Helvetica,sans-Serif" font-size="10.00">{MainController</text>
<text text-anchor="start" x="8" y="-271" font-family="Helvetica,sans-Serif" font-size="10.00">||# bool ValidOperation()</text>
<text text-anchor="start" x="8" y="-260" font-family="Helvetica,sans-Serif" font-size="10.00"># IActionResult CustomResponse</text>
<text text-anchor="start" x="8" y="-249" font-family="Helvetica,sans-Serif" font-size="10.00">(object result=null)</text>
<text text-anchor="middle" x="81.5" y="-238" font-family="Helvetica,sans-Serif" font-size="10.00">}</text>
</a>
</g>
</g>
<!-- Node2&#45;&gt;Node1 -->
<g id="edge1" class="edge">
<title>Node2&#45;&gt;Node1</title>
<path fill="none" stroke="#63b8ff" d="M109.28,-222.82C117.65,-211.17 127.21,-197.85 136.94,-184.29"/>
<polygon fill="none" stroke="#63b8ff" points="106.4,-220.82 103.41,-230.99 112.09,-224.9 106.4,-220.82"/>
</g>
<!-- Node3 -->
<g id="node3" class="node">
<title>Node3</title>
<g id="a_node3"><a xlink:href="../../d8/d87/class_controller.html" target="_top" xlink:title=" ">
<polygon fill="white" stroke="#666666" points="61,-371 0,-371 0,-341 61,-341 61,-371"/>
<text text-anchor="middle" x="30.5" y="-359" font-family="Helvetica,sans-Serif" font-size="10.00">{Controller</text>
<text text-anchor="middle" x="30.5" y="-348" font-family="Helvetica,sans-Serif" font-size="10.00">||}</text>
</a>
</g>
</g>
<!-- Node3&#45;&gt;Node2 -->
<g id="edge2" class="edge">
<title>Node3&#45;&gt;Node2</title>
<path fill="none" stroke="#63b8ff" d="M43.42,-331.83C49.75,-320.46 57.48,-306.6 64.3,-294.35"/>
<polygon fill="none" stroke="#63b8ff" points="40.28,-330.26 38.47,-340.7 46.39,-333.67 40.28,-330.26"/>
</g>
<!-- Node4 -->
<g id="node4" class="node">
<title>Node4</title>
<g id="a_node4"><a xlink:title=" ">
<polygon fill="white" stroke="#666666" points="186,-371 79,-371 79,-341 186,-341 186,-371"/>
<text text-anchor="middle" x="132.5" y="-359" font-family="Helvetica,sans-Serif" font-size="10.00">{ICollection&lt; string &gt;</text>
<text text-anchor="middle" x="132.5" y="-348" font-family="Helvetica,sans-Serif" font-size="10.00">||}</text>
</a>
</g>
</g>
<!-- Node4&#45;&gt;Node2 -->
<g id="edge3" class="edge">
<title>Node4&#45;&gt;Node2</title>
<path fill="none" stroke="#404040" d="M124.53,-340.7C119.15,-331.04 111.74,-317.76 104.59,-304.93"/>
<polygon fill="none" stroke="#404040" points="104.54,-304.83 98.12,-301.54 98.7,-294.35 105.11,-297.64 104.54,-304.83"/>
<text text-anchor="middle" x="133" y="-315" font-family="Helvetica,sans-Serif" font-size="10.00"> #Errors</text>
</g>
<!-- Node5 -->
<g id="node5" class="node">
<title>Node5</title>
<g id="a_node5"><a xlink:href="../../d3/dde/interfacedoxygen__documentation__example_1_1_data_1_1_repositories_1_1_i_unit_of_work.html" target="_top" xlink:title=" ">
<polygon fill="white" stroke="#666666" points="306,-283 181,-283 181,-242 306,-242 306,-283"/>
<text text-anchor="middle" x="243.5" y="-271" font-family="Helvetica,sans-Serif" font-size="10.00">{IUnitOfWork</text>
<text text-anchor="start" x="189" y="-260" font-family="Helvetica,sans-Serif" font-size="10.00">|+ IUserRepository Users</text>
<text text-anchor="middle" x="243.5" y="-249" font-family="Helvetica,sans-Serif" font-size="10.00">|}</text>
</a>
</g>
</g>
<!-- Node5&#45;&gt;Node1 -->
<g id="edge4" class="edge">
<title>Node5&#45;&gt;Node1</title>
<path fill="none" stroke="#404040" d="M238.72,-241.84C235.79,-229.81 231.79,-213.38 227.52,-195.81"/>
<polygon fill="none" stroke="#404040" points="227.51,-195.8 222.21,-190.92 224.68,-184.14 229.98,-189.03 227.51,-195.8"/>
<text text-anchor="middle" x="258" y="-205" font-family="Helvetica,sans-Serif" font-size="10.00"> &#45;unitOfWork</text>
</g>
</g>
</svg>
