<?xml version="1.0" encoding="UTF-8" standalone="no"?>
<!DOCTYPE svg PUBLIC "-//W3C//DTD SVG 1.1//EN"
 "http://www.w3.org/Graphics/SVG/1.1/DTD/svg11.dtd">
<!-- Generated by graphviz version 6.0.1 (20220911.1526)
 -->
<!-- Title: UserRepository Pages: 1 -->
<svg width="411pt" height="698pt"
 viewBox="0.00 0.00 410.50 698.00" xmlns="http://www.w3.org/2000/svg" xmlns:xlink="http://www.w3.org/1999/xlink">
<g id="graph0" class="graph" transform="scale(1 1) rotate(0) translate(4 694)">
<title>UserRepository</title>
<!-- Node1 -->
<g id="node1" class="node">
<title>Node1</title>
<g id="a_node1"><a xlink:title=" ">
<polygon fill="#999999" stroke="#666666" points="230,-173 69,-173 69,0 230,0 230,-173"/>
<text text-anchor="middle" x="149.5" y="-161" font-family="Helvetica,sans-Serif" font-size="10.00">{UserRepository</text>
<text text-anchor="start" x="77" y="-150" font-family="Helvetica,sans-Serif" font-size="10.00">||+ &#160;UserRepository(IConfiguration</text>
<text text-anchor="start" x="77" y="-139" font-family="Helvetica,sans-Serif" font-size="10.00"> configuration, Context context)</text>
<text text-anchor="start" x="77" y="-128" font-family="Helvetica,sans-Serif" font-size="10.00">+ async Task PopulateDb()</text>
<text text-anchor="start" x="77" y="-117" font-family="Helvetica,sans-Serif" font-size="10.00">+ async Task&lt; int &gt; AddAsync</text>
<text text-anchor="start" x="77" y="-106" font-family="Helvetica,sans-Serif" font-size="10.00">(User entity)</text>
<text text-anchor="start" x="77" y="-95" font-family="Helvetica,sans-Serif" font-size="10.00">+ async Task&lt; int &gt; Delete</text>
<text text-anchor="start" x="77" y="-84" font-family="Helvetica,sans-Serif" font-size="10.00">Async(string id)</text>
<text text-anchor="start" x="77" y="-73" font-family="Helvetica,sans-Serif" font-size="10.00">+ async Task&lt; IReadOnlyList</text>
<text text-anchor="start" x="77" y="-62" font-family="Helvetica,sans-Serif" font-size="10.00">&lt; User &gt; &gt; GetAllAsync()</text>
<text text-anchor="start" x="77" y="-51" font-family="Helvetica,sans-Serif" font-size="10.00">+ async Task&lt; User &gt;</text>
<text text-anchor="start" x="77" y="-40" font-family="Helvetica,sans-Serif" font-size="10.00"> GetByIdAsync(string id)</text>
<text text-anchor="start" x="77" y="-29" font-family="Helvetica,sans-Serif" font-size="10.00">+ async Task&lt; int &gt; Update</text>
<text text-anchor="start" x="77" y="-18" font-family="Helvetica,sans-Serif" font-size="10.00">Async(User entity)</text>
<text text-anchor="middle" x="149.5" y="-7" font-family="Helvetica,sans-Serif" font-size="10.00">}</text>
</a>
</g>
</g>
<!-- Node2 -->
<g id="node2" class="node">
<title>Node2</title>
<g id="a_node2"><a xlink:href="../../dd/dfe/interfacedoxygen__documentation__example_1_1_data_1_1_repositories_1_1_i_user_repository.html" target="_top" xlink:title=" ">
<polygon fill="white" stroke="#666666" points="113,-266.5 24,-266.5 24,-236.5 113,-236.5 113,-266.5"/>
<text text-anchor="middle" x="68.5" y="-254.5" font-family="Helvetica,sans-Serif" font-size="10.00">{IUserRepository</text>
<text text-anchor="middle" x="68.5" y="-243.5" font-family="Helvetica,sans-Serif" font-size="10.00">||}</text>
</a>
</g>
</g>
<!-- Node2&#45;&gt;Node1 -->
<g id="edge1" class="edge">
<title>Node2&#45;&gt;Node1</title>
<path fill="none" stroke="#63b8ff" d="M80.08,-227.2C87.25,-212.77 96.95,-193.24 106.83,-173.37"/>
<polygon fill="none" stroke="#63b8ff" points="76.86,-225.81 75.55,-236.32 83.13,-228.92 76.86,-225.81"/>
</g>
<!-- Node3 -->
<g id="node3" class="node">
<title>Node3</title>
<g id="a_node3"><a xlink:href="../../d5/d68/interfacedoxygen__documentation__example_1_1_data_1_1_repositories_1_1_i_generic_repository.html" target="_top" xlink:title=" ">
<polygon fill="white" stroke="#666666" points="137,-492 0,-492 0,-330 137,-330 137,-492"/>
<text text-anchor="start" x="8" y="-480" font-family="Helvetica,sans-Serif" font-size="10.00">{IGenericRepository</text>
<text text-anchor="middle" x="68.5" y="-469" font-family="Helvetica,sans-Serif" font-size="10.00">&lt; User &gt;</text>
<text text-anchor="start" x="8" y="-458" font-family="Helvetica,sans-Serif" font-size="10.00">||+ Task PopulateDb()</text>
<text text-anchor="start" x="8" y="-447" font-family="Helvetica,sans-Serif" font-size="10.00">+ Task&lt; T &gt; GetByIdAsync</text>
<text text-anchor="start" x="8" y="-436" font-family="Helvetica,sans-Serif" font-size="10.00">(string id)</text>
<text text-anchor="start" x="8" y="-425" font-family="Helvetica,sans-Serif" font-size="10.00">+ Task&lt; IReadOnlyList</text>
<text text-anchor="start" x="8" y="-414" font-family="Helvetica,sans-Serif" font-size="10.00">&lt; T &gt; &gt; GetAllAsync()</text>
<text text-anchor="start" x="8" y="-403" font-family="Helvetica,sans-Serif" font-size="10.00">+ Task&lt; int &gt; AddAsync</text>
<text text-anchor="start" x="8" y="-392" font-family="Helvetica,sans-Serif" font-size="10.00">(T entity)</text>
<text text-anchor="start" x="8" y="-381" font-family="Helvetica,sans-Serif" font-size="10.00">+ Task&lt; int &gt; UpdateAsync</text>
<text text-anchor="start" x="8" y="-370" font-family="Helvetica,sans-Serif" font-size="10.00">(T entity)</text>
<text text-anchor="start" x="8" y="-359" font-family="Helvetica,sans-Serif" font-size="10.00">+ Task&lt; int &gt; DeleteAsync</text>
<text text-anchor="start" x="8" y="-348" font-family="Helvetica,sans-Serif" font-size="10.00">(string id)</text>
<text text-anchor="middle" x="68.5" y="-337" font-family="Helvetica,sans-Serif" font-size="10.00">}</text>
</a>
</g>
</g>
<!-- Node3&#45;&gt;Node2 -->
<g id="edge2" class="edge">
<title>Node3&#45;&gt;Node2</title>
<path fill="none" stroke="#63b8ff" d="M68.5,-319.64C68.5,-298.95 68.5,-279.34 68.5,-266.72"/>
<polygon fill="none" stroke="#63b8ff" points="65,-319.87 68.5,-329.87 72,-319.87 65,-319.87"/>
</g>
<!-- Node4 -->
<g id="node4" class="node">
<title>Node4</title>
<g id="a_node4"><a xlink:href="../../d5/d68/interfacedoxygen__documentation__example_1_1_data_1_1_repositories_1_1_i_generic_repository.html" target="_top" xlink:title=" ">
<polygon fill="white" stroke="#666666" points="137,-690 0,-690 0,-539 137,-539 137,-690"/>
<text text-anchor="middle" x="68.5" y="-678" font-family="Helvetica,sans-Serif" font-size="10.00">{IGenericRepository&lt; T &gt;</text>
<text text-anchor="start" x="8" y="-667" font-family="Helvetica,sans-Serif" font-size="10.00">||+ Task PopulateDb()</text>
<text text-anchor="start" x="8" y="-656" font-family="Helvetica,sans-Serif" font-size="10.00">+ Task&lt; T &gt; GetByIdAsync</text>
<text text-anchor="start" x="8" y="-645" font-family="Helvetica,sans-Serif" font-size="10.00">(string id)</text>
<text text-anchor="start" x="8" y="-634" font-family="Helvetica,sans-Serif" font-size="10.00">+ Task&lt; IReadOnlyList</text>
<text text-anchor="start" x="8" y="-623" font-family="Helvetica,sans-Serif" font-size="10.00">&lt; T &gt; &gt; GetAllAsync()</text>
<text text-anchor="start" x="8" y="-612" font-family="Helvetica,sans-Serif" font-size="10.00">+ Task&lt; int &gt; AddAsync</text>
<text text-anchor="start" x="8" y="-601" font-family="Helvetica,sans-Serif" font-size="10.00">(T entity)</text>
<text text-anchor="start" x="8" y="-590" font-family="Helvetica,sans-Serif" font-size="10.00">+ Task&lt; int &gt; UpdateAsync</text>
<text text-anchor="start" x="8" y="-579" font-family="Helvetica,sans-Serif" font-size="10.00">(T entity)</text>
<text text-anchor="start" x="8" y="-568" font-family="Helvetica,sans-Serif" font-size="10.00">+ Task&lt; int &gt; DeleteAsync</text>
<text text-anchor="start" x="8" y="-557" font-family="Helvetica,sans-Serif" font-size="10.00">(string id)</text>
<text text-anchor="middle" x="68.5" y="-546" font-family="Helvetica,sans-Serif" font-size="10.00">}</text>
</a>
</g>
</g>
<!-- Node4&#45;&gt;Node3 -->
<g id="edge3" class="edge">
<title>Node4&#45;&gt;Node3</title>
<path fill="none" stroke="orange" d="M68.5,-528.65C68.5,-516.52 68.5,-504.07 68.5,-492.03"/>
<polygon fill="orange" stroke="orange" points="65,-528.76 68.5,-538.76 72,-528.76 65,-528.76"/>
<text text-anchor="middle" x="89.5" y="-513" font-family="Helvetica,sans-Serif" font-size="10.00"> &lt; User &gt;</text>
</g>
<!-- Node5 -->
<g id="node5" class="node">
<title>Node5</title>
<g id="a_node5"><a xlink:title=" ">
<polygon fill="white" stroke="#666666" points="293.5,-426 215.5,-426 215.5,-396 293.5,-396 293.5,-426"/>
<text text-anchor="middle" x="254.5" y="-414" font-family="Helvetica,sans-Serif" font-size="10.00">{IConfiguration</text>
<text text-anchor="middle" x="254.5" y="-403" font-family="Helvetica,sans-Serif" font-size="10.00">||}</text>
</a>
</g>
</g>
<!-- Node5&#45;&gt;Node1 -->
<g id="edge4" class="edge">
<title>Node5&#45;&gt;Node1</title>
<path fill="none" stroke="#404040" d="M238.99,-395.8C216.45,-374.06 175.5,-330.05 158.5,-283 147.45,-252.4 143.4,-217.33 142.67,-185.43"/>
<polygon fill="none" stroke="#404040" points="142.67,-185.37 138.61,-179.41 142.55,-173.37 146.61,-179.33 142.67,-185.37"/>
<text text-anchor="middle" x="189" y="-249" font-family="Helvetica,sans-Serif" font-size="10.00"> &#45;configuration</text>
</g>
<!-- Node6 -->
<g id="node6" class="node">
<title>Node6</title>
<g id="a_node6"><a xlink:href="../../dc/df1/classdoxygen__documentation__example_1_1_data_1_1_context.html" target="_top" xlink:title=" ">
<polygon fill="white" stroke="#666666" points="402.5,-283 228.5,-283 228.5,-220 402.5,-220 402.5,-283"/>
<text text-anchor="middle" x="315.5" y="-271" font-family="Helvetica,sans-Serif" font-size="10.00">{Context</text>
<text text-anchor="start" x="236.5" y="-260" font-family="Helvetica,sans-Serif" font-size="10.00">||+ &#160;Context(IConfiguration</text>
<text text-anchor="start" x="236.5" y="-249" font-family="Helvetica,sans-Serif" font-size="10.00"> config)</text>
<text text-anchor="start" x="236.5" y="-238" font-family="Helvetica,sans-Serif" font-size="10.00">+ IDbConnection GetDbConnection()</text>
<text text-anchor="middle" x="315.5" y="-227" font-family="Helvetica,sans-Serif" font-size="10.00">}</text>
</a>
</g>
</g>
<!-- Node5&#45;&gt;Node6 -->
<g id="edge6" class="edge">
<title>Node5&#45;&gt;Node6</title>
<path fill="none" stroke="#404040" d="M260.02,-395.75C268.78,-373.12 286.21,-328.12 299.21,-294.57"/>
<polygon fill="none" stroke="#404040" points="299.26,-294.42 297.7,-287.38 303.6,-283.23 305.16,-290.27 299.26,-294.42"/>
<text text-anchor="middle" x="314" y="-304" font-family="Helvetica,sans-Serif" font-size="10.00"> &#45;_config</text>
</g>
<!-- Node6&#45;&gt;Node1 -->
<g id="edge5" class="edge">
<title>Node6&#45;&gt;Node1</title>
<path fill="none" stroke="#404040" d="M284.28,-219.84C271.28,-207.08 255.47,-191.55 239.3,-175.68"/>
<polygon fill="none" stroke="#404040" points="238.87,-175.25 231.78,-173.9 230.3,-166.84 237.39,-168.19 238.87,-175.25"/>
<text text-anchor="middle" x="283.5" y="-194" font-family="Helvetica,sans-Serif" font-size="10.00"> &#45;_context</text>
</g>
</g>
</svg>
