<?xml version="1.0" encoding="UTF-8" standalone="no"?>
<!DOCTYPE svg PUBLIC "-//W3C//DTD SVG 1.1//EN"
 "http://www.w3.org/Graphics/SVG/1.1/DTD/svg11.dtd">
<!-- Generated by graphviz version 6.0.1 (20220911.1526)
 -->
<!-- Title: UserController Pages: 1 -->
<svg width="172pt" height="291pt"
 viewBox="0.00 0.00 172.00 291.00" xmlns="http://www.w3.org/2000/svg" xmlns:xlink="http://www.w3.org/1999/xlink">
<g id="graph0" class="graph" transform="scale(1 1) rotate(0) translate(4 287)">
<title>UserController</title>
<!-- Node1 -->
<g id="node1" class="node">
<title>Node1</title>
<g id="a_node1"><a xlink:title=" ">
<polygon fill="#999999" stroke="#666666" points="164,-96 0,-96 0,0 164,0 164,-96"/>
<text text-anchor="middle" x="82" y="-84" font-family="Helvetica,sans-Serif" font-size="10.00">{UserController</text>
<text text-anchor="start" x="8" y="-73" font-family="Helvetica,sans-Serif" font-size="10.00">|&#45; readonly IUserRepository</text>
<text text-anchor="start" x="8" y="-62" font-family="Helvetica,sans-Serif" font-size="10.00"> _usersRepository</text>
<text text-anchor="start" x="8" y="-51" font-family="Helvetica,sans-Serif" font-size="10.00">|+ &#160;UserController(IUserRepository</text>
<text text-anchor="start" x="8" y="-40" font-family="Helvetica,sans-Serif" font-size="10.00"> usersRepository)</text>
<text text-anchor="start" x="8" y="-29" font-family="Helvetica,sans-Serif" font-size="10.00">+ async Task&lt; IActionResult</text>
<text text-anchor="start" x="8" y="-18" font-family="Helvetica,sans-Serif" font-size="10.00"> &gt; GetAllUsers()</text>
<text text-anchor="middle" x="82" y="-7" font-family="Helvetica,sans-Serif" font-size="10.00">}</text>
</a>
</g>
</g>
<!-- Node2 -->
<g id="node2" class="node">
<title>Node2</title>
<g id="a_node2"><a xlink:href="../../dc/dea/classdoxygen__documentation__example_1_1_controllers_1_1_main_controller.html" target="_top" xlink:title=" ">
<polygon fill="white" stroke="#666666" points="163.5,-217 0.5,-217 0.5,-132 163.5,-132 163.5,-217"/>
<text text-anchor="middle" x="82" y="-205" font-family="Helvetica,sans-Serif" font-size="10.00">{MainController</text>
<text text-anchor="start" x="8.5" y="-194" font-family="Helvetica,sans-Serif" font-size="10.00">|# ICollection&lt; string</text>
<text text-anchor="start" x="8.5" y="-183" font-family="Helvetica,sans-Serif" font-size="10.00"> &gt; Errors</text>
<text text-anchor="start" x="8.5" y="-172" font-family="Helvetica,sans-Serif" font-size="10.00">|# bool ValidOperation()</text>
<text text-anchor="start" x="8.5" y="-161" font-family="Helvetica,sans-Serif" font-size="10.00"># IActionResult CustomResponse</text>
<text text-anchor="start" x="8.5" y="-150" font-family="Helvetica,sans-Serif" font-size="10.00">(object result=null)</text>
<text text-anchor="middle" x="82" y="-139" font-family="Helvetica,sans-Serif" font-size="10.00">}</text>
</a>
</g>
</g>
<!-- Node2&#45;&gt;Node1 -->
<g id="edge1" class="edge">
<title>Node2&#45;&gt;Node1</title>
<path fill="none" stroke="#63b8ff" d="M82,-121.56C82,-113.1 82,-104.39 82,-96.06"/>
<polygon fill="none" stroke="#63b8ff" points="78.5,-121.7 82,-131.7 85.5,-121.7 78.5,-121.7"/>
</g>
<!-- Node3 -->
<g id="node3" class="node">
<title>Node3</title>
<g id="a_node3"><a xlink:href="../../d8/d87/class_controller.html" target="_top" xlink:title=" ">
<polygon fill="white" stroke="#666666" points="112.5,-283 51.5,-283 51.5,-253 112.5,-253 112.5,-283"/>
<text text-anchor="middle" x="82" y="-271" font-family="Helvetica,sans-Serif" font-size="10.00">{Controller</text>
<text text-anchor="middle" x="82" y="-260" font-family="Helvetica,sans-Serif" font-size="10.00">||}</text>
</a>
</g>
</g>
<!-- Node3&#45;&gt;Node2 -->
<g id="edge2" class="edge">
<title>Node3&#45;&gt;Node2</title>
<path fill="none" stroke="#63b8ff" d="M82,-242.57C82,-234.81 82,-225.99 82,-217.37"/>
<polygon fill="none" stroke="#63b8ff" points="78.5,-242.7 82,-252.7 85.5,-242.7 78.5,-242.7"/>
</g>
</g>
</svg>
