<?xml version="1.0" encoding="UTF-8" standalone="no"?>
<!DOCTYPE svg PUBLIC "-//W3C//DTD SVG 1.1//EN"
 "http://www.w3.org/Graphics/SVG/1.1/DTD/svg11.dtd">
<!-- Generated by graphviz version 6.0.1 (20220911.1526)
 -->
<!-- Title: PopulateDb Pages: 1 -->
<svg width="356pt" height="108pt"
 viewBox="0.00 0.00 356.00 108.00" xmlns="http://www.w3.org/2000/svg" xmlns:xlink="http://www.w3.org/1999/xlink">
<g id="graph0" class="graph" transform="scale(1 1) rotate(0) translate(4 104)">
<title>PopulateDb</title>
<!-- Node1 -->
<g id="node1" class="node">
<title>Node1</title>
<g id="a_node1"><a xlink:title=" ">
<polygon fill="#999999" stroke="#666666" points="67,-59 0,-59 0,-40 67,-40 67,-59"/>
<text text-anchor="middle" x="33.5" y="-47" font-family="Helvetica,sans-Serif" font-size="10.00">PopulateDb</text>
</a>
</g>
</g>
<!-- Node2 -->
<g id="node2" class="node">
<title>Node2</title>
<g id="a_node2"><a xlink:href="../../dd/d8d/classdoxygen__documentation__example_1_1_data_1_1_repositories_1_1_user_repository.html#ac74c030710594161600f490b943dd2d3" target="_top" xlink:title=" ">
<polygon fill="white" stroke="#666666" points="165,-59 103,-59 103,-40 165,-40 165,-59"/>
<text text-anchor="middle" x="134" y="-47" font-family="Helvetica,sans-Serif" font-size="10.00">AddAsync</text>
</a>
</g>
</g>
<!-- Node1&#45;&gt;Node2 -->
<g id="edge1" class="edge">
<title>Node1&#45;&gt;Node2</title>
<path fill="none" stroke="#63b8ff" d="M67.03,-49.5C75.23,-49.5 84.14,-49.5 92.68,-49.5"/>
<polygon fill="#63b8ff" stroke="#63b8ff" points="92.84,-53 102.84,-49.5 92.84,-46 92.84,-53"/>
</g>
<!-- Node3 -->
<g id="node3" class="node">
<title>Node3</title>
<g id="a_node3"><a xlink:href="../../d3/dde/interfacedoxygen__documentation__example_1_1_data_1_1_repositories_1_1_i_unit_of_work.html#ab90cde058517ceaee10427ba68b09997" target="_top" xlink:title=" ">
<polygon fill="white" stroke="#666666" points="348,-100 201,-100 201,-59 348,-59 348,-100"/>
<text text-anchor="start" x="209" y="-88" font-family="Helvetica,sans-Serif" font-size="10.00">doxygen_documentation</text>
<text text-anchor="start" x="209" y="-77" font-family="Helvetica,sans-Serif" font-size="10.00">_example.Data.Repositories.</text>
<text text-anchor="middle" x="274.5" y="-66" font-family="Helvetica,sans-Serif" font-size="10.00">IUnitOfWork.BeginTransaction</text>
</a>
</g>
</g>
<!-- Node2&#45;&gt;Node3 -->
<g id="edge2" class="edge">
<title>Node2&#45;&gt;Node3</title>
<path fill="none" stroke="#63b8ff" d="M165.05,-56.01C172.88,-57.71 181.71,-59.62 190.86,-61.6"/>
<polygon fill="#63b8ff" stroke="#63b8ff" points="190.37,-65.07 200.88,-63.77 191.85,-58.23 190.37,-65.07"/>
</g>
<!-- Node4 -->
<g id="node4" class="node">
<title>Node4</title>
<g id="a_node4"><a xlink:href="../../d3/dde/interfacedoxygen__documentation__example_1_1_data_1_1_repositories_1_1_i_unit_of_work.html#aca6f43ce4724910499fa7cadb5caa01f" target="_top" xlink:title=" ">
<polygon fill="white" stroke="#666666" points="345.5,-41 203.5,-41 203.5,0 345.5,0 345.5,-41"/>
<text text-anchor="start" x="211.5" y="-29" font-family="Helvetica,sans-Serif" font-size="10.00">doxygen_documentation</text>
<text text-anchor="start" x="211.5" y="-18" font-family="Helvetica,sans-Serif" font-size="10.00">_example.Data.Repositories.</text>
<text text-anchor="middle" x="274.5" y="-7" font-family="Helvetica,sans-Serif" font-size="10.00">IUnitOfWork.Commit</text>
</a>
</g>
</g>
<!-- Node2&#45;&gt;Node4 -->
<g id="edge3" class="edge">
<title>Node2&#45;&gt;Node4</title>
<path fill="none" stroke="#63b8ff" d="M165.05,-43.21C173.67,-41.4 183.5,-39.34 193.65,-37.22"/>
<polygon fill="#63b8ff" stroke="#63b8ff" points="194.36,-40.65 203.43,-35.17 192.93,-33.79 194.36,-40.65"/>
</g>
</g>
</svg>
