<?xml version="1.0" encoding="UTF-8" standalone="no"?>
<!DOCTYPE svg PUBLIC "-//W3C//DTD SVG 1.1//EN"
 "http://www.w3.org/Graphics/SVG/1.1/DTD/svg11.dtd">
<!-- Generated by graphviz version 6.0.1 (20220911.1526)
 -->
<!-- Title: PopulateDb Pages: 1 -->
<svg width="358pt" height="49pt"
 viewBox="0.00 0.00 358.00 49.00" xmlns="http://www.w3.org/2000/svg" xmlns:xlink="http://www.w3.org/1999/xlink">
<g id="graph0" class="graph" transform="scale(1 1) rotate(0) translate(4 45)">
<title>PopulateDb</title>
<!-- Node1 -->
<g id="node1" class="node">
<title>Node1</title>
<g id="a_node1"><a xlink:title=" ">
<polygon fill="#999999" stroke="#666666" points="67,-30 0,-30 0,-11 67,-11 67,-30"/>
<text text-anchor="middle" x="33.5" y="-18" font-family="Helvetica,sans-Serif" font-size="10.00">PopulateDb</text>
</a>
</g>
</g>
<!-- Node2 -->
<g id="node2" class="node">
<title>Node2</title>
<g id="a_node2"><a xlink:href="../../dd/d8d/classdoxygen__documentation__example_1_1_data_1_1_repositories_1_1_user_repository.html#ac74c030710594161600f490b943dd2d3" target="_top" xlink:title=" ">
<polygon fill="white" stroke="#666666" points="165,-30 103,-30 103,-11 165,-11 165,-30"/>
<text text-anchor="middle" x="134" y="-18" font-family="Helvetica,sans-Serif" font-size="10.00">AddAsync</text>
</a>
</g>
</g>
<!-- Node1&#45;&gt;Node2 -->
<g id="edge1" class="edge">
<title>Node1&#45;&gt;Node2</title>
<path fill="none" stroke="#63b8ff" d="M67.03,-20.5C75.23,-20.5 84.14,-20.5 92.68,-20.5"/>
<polygon fill="#63b8ff" stroke="#63b8ff" points="92.84,-24 102.84,-20.5 92.84,-17 92.84,-24"/>
</g>
<!-- Node3 -->
<g id="node3" class="node">
<title>Node3</title>
<g id="a_node3"><a xlink:href="../../dc/df1/classdoxygen__documentation__example_1_1_data_1_1_context.html#afe551464b2aae88c5ace3603570546d5" target="_top" xlink:title=" ">
<polygon fill="white" stroke="#666666" points="350,-41 201,-41 201,0 350,0 350,-41"/>
<text text-anchor="start" x="209" y="-29" font-family="Helvetica,sans-Serif" font-size="10.00">doxygen_documentation</text>
<text text-anchor="start" x="209" y="-18" font-family="Helvetica,sans-Serif" font-size="10.00">_example.Data.Context.GetDb</text>
<text text-anchor="middle" x="275.5" y="-7" font-family="Helvetica,sans-Serif" font-size="10.00">Connection</text>
</a>
</g>
</g>
<!-- Node2&#45;&gt;Node3 -->
<g id="edge2" class="edge">
<title>Node2&#45;&gt;Node3</title>
<path fill="none" stroke="#63b8ff" d="M165.27,-20.5C172.95,-20.5 181.59,-20.5 190.56,-20.5"/>
<polygon fill="#63b8ff" stroke="#63b8ff" points="190.79,-24 200.79,-20.5 190.79,-17 190.79,-24"/>
</g>
</g>
</svg>
