<?xml version="1.0" encoding="UTF-8" standalone="no"?>
<!DOCTYPE svg PUBLIC "-//W3C//DTD SVG 1.1//EN"
 "http://www.w3.org/Graphics/SVG/1.1/DTD/svg11.dtd">
<!-- Generated by graphviz version 6.0.1 (20220911.1526)
 -->
<!-- Title: DeleteAsync Pages: 1 -->
<svg width="263pt" height="108pt"
 viewBox="0.00 0.00 263.00 108.00" xmlns="http://www.w3.org/2000/svg" xmlns:xlink="http://www.w3.org/1999/xlink">
<g id="graph0" class="graph" transform="scale(1 1) rotate(0) translate(4 104)">
<title>DeleteAsync</title>
<!-- Node1 -->
<g id="node1" class="node">
<title>Node1</title>
<g id="a_node1"><a xlink:title=" ">
<polygon fill="#999999" stroke="#666666" points="72,-59 0,-59 0,-40 72,-40 72,-59"/>
<text text-anchor="middle" x="36" y="-47" font-family="Helvetica,sans-Serif" font-size="10.00">DeleteAsync</text>
</a>
</g>
</g>
<!-- Node2 -->
<g id="node2" class="node">
<title>Node2</title>
<g id="a_node2"><a xlink:href="../../d3/dde/interfacedoxygen__documentation__example_1_1_data_1_1_repositories_1_1_i_unit_of_work.html#ab90cde058517ceaee10427ba68b09997" target="_top" xlink:title=" ">
<polygon fill="white" stroke="#666666" points="255,-100 108,-100 108,-59 255,-59 255,-100"/>
<text text-anchor="start" x="116" y="-88" font-family="Helvetica,sans-Serif" font-size="10.00">doxygen_documentation</text>
<text text-anchor="start" x="116" y="-77" font-family="Helvetica,sans-Serif" font-size="10.00">_example.Data.Repositories.</text>
<text text-anchor="middle" x="181.5" y="-66" font-family="Helvetica,sans-Serif" font-size="10.00">IUnitOfWork.BeginTransaction</text>
</a>
</g>
</g>
<!-- Node1&#45;&gt;Node2 -->
<g id="edge1" class="edge">
<title>Node1&#45;&gt;Node2</title>
<path fill="none" stroke="#63b8ff" d="M72.1,-56.84C80.09,-58.51 88.9,-60.35 97.94,-62.24"/>
<polygon fill="#63b8ff" stroke="#63b8ff" points="97.31,-65.68 107.82,-64.31 98.75,-58.83 97.31,-65.68"/>
</g>
<!-- Node3 -->
<g id="node3" class="node">
<title>Node3</title>
<g id="a_node3"><a xlink:href="../../d3/dde/interfacedoxygen__documentation__example_1_1_data_1_1_repositories_1_1_i_unit_of_work.html#aca6f43ce4724910499fa7cadb5caa01f" target="_top" xlink:title=" ">
<polygon fill="white" stroke="#666666" points="252.5,-41 110.5,-41 110.5,0 252.5,0 252.5,-41"/>
<text text-anchor="start" x="118.5" y="-29" font-family="Helvetica,sans-Serif" font-size="10.00">doxygen_documentation</text>
<text text-anchor="start" x="118.5" y="-18" font-family="Helvetica,sans-Serif" font-size="10.00">_example.Data.Repositories.</text>
<text text-anchor="middle" x="181.5" y="-7" font-family="Helvetica,sans-Serif" font-size="10.00">IUnitOfWork.Commit</text>
</a>
</g>
</g>
<!-- Node1&#45;&gt;Node3 -->
<g id="edge2" class="edge">
<title>Node1&#45;&gt;Node3</title>
<path fill="none" stroke="#63b8ff" d="M72.1,-42.41C80.82,-40.65 90.51,-38.69 100.43,-36.68"/>
<polygon fill="#63b8ff" stroke="#63b8ff" points="101.27,-40.08 110.38,-34.67 99.89,-33.22 101.27,-40.08"/>
</g>
</g>
</svg>
