<?xml version="1.0" encoding="UTF-8" standalone="no"?>
<!DOCTYPE svg PUBLIC "-//W3C//DTD SVG 1.1//EN"
 "http://www.w3.org/Graphics/SVG/1.1/DTD/svg11.dtd">
<!-- Generated by graphviz version 6.0.1 (20220911.1526)
 -->
<!-- Title: AddAsync Pages: 1 -->
<svg width="253pt" height="108pt"
 viewBox="0.00 0.00 253.00 108.00" xmlns="http://www.w3.org/2000/svg" xmlns:xlink="http://www.w3.org/1999/xlink">
<g id="graph0" class="graph" transform="scale(1 1) rotate(0) translate(4 104)">
<title>AddAsync</title>
<!-- Node1 -->
<g id="node1" class="node">
<title>Node1</title>
<g id="a_node1"><a xlink:title=" ">
<polygon fill="#999999" stroke="#666666" points="62,-59 0,-59 0,-40 62,-40 62,-59"/>
<text text-anchor="middle" x="31" y="-47" font-family="Helvetica,sans-Serif" font-size="10.00">AddAsync</text>
</a>
</g>
</g>
<!-- Node2 -->
<g id="node2" class="node">
<title>Node2</title>
<g id="a_node2"><a xlink:href="../../d3/dde/interfacedoxygen__documentation__example_1_1_data_1_1_repositories_1_1_i_unit_of_work.html#ab90cde058517ceaee10427ba68b09997" target="_top" xlink:title=" ">
<polygon fill="white" stroke="#666666" points="245,-100 98,-100 98,-59 245,-59 245,-100"/>
<text text-anchor="start" x="106" y="-88" font-family="Helvetica,sans-Serif" font-size="10.00">doxygen_documentation</text>
<text text-anchor="start" x="106" y="-77" font-family="Helvetica,sans-Serif" font-size="10.00">_example.Data.Repositories.</text>
<text text-anchor="middle" x="171.5" y="-66" font-family="Helvetica,sans-Serif" font-size="10.00">IUnitOfWork.BeginTransaction</text>
</a>
</g>
</g>
<!-- Node1&#45;&gt;Node2 -->
<g id="edge1" class="edge">
<title>Node1&#45;&gt;Node2</title>
<path fill="none" stroke="#63b8ff" d="M62.05,-56.01C69.88,-57.71 78.71,-59.62 87.86,-61.6"/>
<polygon fill="#63b8ff" stroke="#63b8ff" points="87.37,-65.07 97.88,-63.77 88.85,-58.23 87.37,-65.07"/>
</g>
<!-- Node3 -->
<g id="node3" class="node">
<title>Node3</title>
<g id="a_node3"><a xlink:href="../../d3/dde/interfacedoxygen__documentation__example_1_1_data_1_1_repositories_1_1_i_unit_of_work.html#aca6f43ce4724910499fa7cadb5caa01f" target="_top" xlink:title=" ">
<polygon fill="white" stroke="#666666" points="242.5,-41 100.5,-41 100.5,0 242.5,0 242.5,-41"/>
<text text-anchor="start" x="108.5" y="-29" font-family="Helvetica,sans-Serif" font-size="10.00">doxygen_documentation</text>
<text text-anchor="start" x="108.5" y="-18" font-family="Helvetica,sans-Serif" font-size="10.00">_example.Data.Repositories.</text>
<text text-anchor="middle" x="171.5" y="-7" font-family="Helvetica,sans-Serif" font-size="10.00">IUnitOfWork.Commit</text>
</a>
</g>
</g>
<!-- Node1&#45;&gt;Node3 -->
<g id="edge2" class="edge">
<title>Node1&#45;&gt;Node3</title>
<path fill="none" stroke="#63b8ff" d="M62.05,-43.21C70.67,-41.4 80.5,-39.34 90.65,-37.22"/>
<polygon fill="#63b8ff" stroke="#63b8ff" points="91.36,-40.65 100.43,-35.17 89.93,-33.79 91.36,-40.65"/>
</g>
</g>
</svg>
