<?xml version="1.0" encoding="UTF-8" standalone="no"?>
<!DOCTYPE svg PUBLIC "-//W3C//DTD SVG 1.1//EN"
 "http://www.w3.org/Graphics/SVG/1.1/DTD/svg11.dtd">
<!-- Generated by graphviz version 6.0.1 (20220911.1526)
 -->
<!-- Title: UpdateAsync Pages: 1 -->
<svg width="266pt" height="108pt"
 viewBox="0.00 0.00 266.00 108.00" xmlns="http://www.w3.org/2000/svg" xmlns:xlink="http://www.w3.org/1999/xlink">
<g id="graph0" class="graph" transform="scale(1 1) rotate(0) translate(4 104)">
<title>UpdateAsync</title>
<!-- Node1 -->
<g id="node1" class="node">
<title>Node1</title>
<g id="a_node1"><a xlink:title=" ">
<polygon fill="#999999" stroke="#666666" points="75,-59 0,-59 0,-40 75,-40 75,-59"/>
<text text-anchor="middle" x="37.5" y="-47" font-family="Helvetica,sans-Serif" font-size="10.00">UpdateAsync</text>
</a>
</g>
</g>
<!-- Node2 -->
<g id="node2" class="node">
<title>Node2</title>
<g id="a_node2"><a xlink:href="../../d3/dde/interfacedoxygen__documentation__example_1_1_data_1_1_repositories_1_1_i_unit_of_work.html#ab90cde058517ceaee10427ba68b09997" target="_top" xlink:title=" ">
<polygon fill="white" stroke="#666666" points="258,-100 111,-100 111,-59 258,-59 258,-100"/>
<text text-anchor="start" x="119" y="-88" font-family="Helvetica,sans-Serif" font-size="10.00">doxygen_documentation</text>
<text text-anchor="start" x="119" y="-77" font-family="Helvetica,sans-Serif" font-size="10.00">_example.Data.Repositories.</text>
<text text-anchor="middle" x="184.5" y="-66" font-family="Helvetica,sans-Serif" font-size="10.00">IUnitOfWork.BeginTransaction</text>
</a>
</g>
</g>
<!-- Node1&#45;&gt;Node2 -->
<g id="edge1" class="edge">
<title>Node1&#45;&gt;Node2</title>
<path fill="none" stroke="#63b8ff" d="M75.09,-57.07C83.1,-58.73 91.89,-60.55 100.89,-62.41"/>
<polygon fill="#63b8ff" stroke="#63b8ff" points="100.22,-65.84 110.72,-64.44 101.64,-58.99 100.22,-65.84"/>
</g>
<!-- Node3 -->
<g id="node3" class="node">
<title>Node3</title>
<g id="a_node3"><a xlink:href="../../d3/dde/interfacedoxygen__documentation__example_1_1_data_1_1_repositories_1_1_i_unit_of_work.html#aca6f43ce4724910499fa7cadb5caa01f" target="_top" xlink:title=" ">
<polygon fill="white" stroke="#666666" points="255.5,-41 113.5,-41 113.5,0 255.5,0 255.5,-41"/>
<text text-anchor="start" x="121.5" y="-29" font-family="Helvetica,sans-Serif" font-size="10.00">doxygen_documentation</text>
<text text-anchor="start" x="121.5" y="-18" font-family="Helvetica,sans-Serif" font-size="10.00">_example.Data.Repositories.</text>
<text text-anchor="middle" x="184.5" y="-7" font-family="Helvetica,sans-Serif" font-size="10.00">IUnitOfWork.Commit</text>
</a>
</g>
</g>
<!-- Node1&#45;&gt;Node3 -->
<g id="edge2" class="edge">
<title>Node1&#45;&gt;Node3</title>
<path fill="none" stroke="#63b8ff" d="M75.09,-42.18C83.84,-40.43 93.51,-38.5 103.38,-36.52"/>
<polygon fill="#63b8ff" stroke="#63b8ff" points="104.17,-39.94 113.29,-34.54 102.8,-33.07 104.17,-39.94"/>
</g>
</g>
</svg>
